<?xml version="1.0" encoding="UTF-8"?>
<!DOCTYPE svg PUBLIC "-//W3C//DTD SVG 1.1//EN" "http://www.w3.org/Graphics/SVG/1.1/DTD/svg11.dtd">
<!-- Creator: CorelDRAW 2019 (64-Bit) -->
<svg xmlns="http://www.w3.org/2000/svg" xml:space="preserve" width="101.413mm" height="108.575mm" version="1.1" style="shape-rendering:geometricPrecision; text-rendering:geometricPrecision; image-rendering:optimizeQuality; fill-rule:evenodd; clip-rule:evenodd"
viewBox="0 0 1365.61 1462.05"
 xmlns:xlink="http://www.w3.org/1999/xlink">
 <defs>
  <style type="text/css">
   <![CDATA[
    .fil5 {fill:none}
    .fil4 {fill:#333333}
    .fil1 {fill:#FF6600}
    .fil2 {fill:#FFD724}
    .fil3 {fill:white}
    .fil0 {fill:url(#id0)}
   ]]>
  </style>
  <linearGradient id="id0" gradientUnits="userSpaceOnUse" x1="1120.33" y1="345.53" x2="422.25" y2="1011.15">
   <stop offset="0" style="stop-opacity:1; stop-color:#A8A8A8"/>
   <stop offset="1" style="stop-opacity:1; stop-color:#FFD9BF"/>
  </linearGradient>
 </defs>
 <g id="Layer_x0020_1">
  <metadata id="CorelCorpID_0Corel-Layer"/>
  <g id="_2231181314160">
   <path class="fil0" d="M722.66 738.09l-196.81 261.72c-7.7,-6.27 -7.21,-5.07 -6.22,-8.31l-3.9 -3.18c-2.98,1.64 -1.65,1.9 -9.4,-4.4l204.62 -255.37 11.71 9.53zm-194.14 270.39l4.77 -5.85c2.86,0.88 2.43,-0.16 5.27,-0.97 0.26,-0.07 0.6,-0.2 0.87,-0.27l8.64 -2.93c0.27,-0.11 0.6,-0.29 0.87,-0.4 0.26,-0.13 0.58,-0.27 0.85,-0.39l4.26 -1.94c0.27,-0.11 0.61,-0.28 0.86,-0.39l14.54 -6.57c0.99,-0.43 2.43,-1.09 3.42,-1.54 7.14,-3.2 -5.43,2.46 1.71,-0.77l16.26 -7.32c0.26,-0.13 0.58,-0.27 0.84,-0.4l16.38 -6.11c0.26,-0.13 0.58,-0.27 0.84,-0.4l6 -2.72c0.01,-0.02 1.69,-0.78 1.71,-0.77 0.26,-0.13 0.58,-0.27 0.86,-0.39l6.84 -3.09c0.98,-0.44 2.44,-1.1 3.42,-1.54 2.37,-1.08 -0.68,0.3 1.71,-0.77l10.26 -4.63c0.26,-0.13 0.58,-0.27 0.86,-0.39l12.84 -5.75c0.25,-0.08 0.61,-0.18 0.85,-0.26l7.81 -2.42c0.26,-0.13 0.6,-0.29 0.85,-0.41l2.55 -1.17c0.26,-0.13 0.61,-0.28 0.87,-0.4l2.57 -1.16c0.98,-0.44 2.44,-1.1 3.42,-1.54l7.69 -3.47c0.35,-0.15 1.36,-0.62 1.71,-0.77 0.26,-0.13 0.6,-0.26 0.86,-0.39l2.56 -1.16c0.94,-0.42 0.76,-0.33 1.71,-0.77l1.71 -0.77c0.27,-0.11 0.6,-0.26 0.85,-0.39l12.82 -5.79c0.27,-0.11 0.6,-0.26 0.86,-0.39l1.71 -0.77c0.27,-0.11 0.6,-0.26 0.86,-0.39l18.09 -6.91c0.26,-0.13 0.58,-0.27 0.86,-0.39l17.94 -8.11c0.49,-0.22 1.25,-0.55 1.71,-0.77l1.71 -0.77c2.98,-1.36 -0.49,0.22 1.71,-0.77l17.11 -7.73c0.27,-0.11 0.6,-0.26 0.86,-0.39 0.27,-0.11 0.6,-0.26 0.85,-0.39 0.27,-0.11 0.6,-0.26 0.86,-0.39 0.27,-0.11 0.6,-0.26 0.86,-0.39 0.26,-0.13 0.6,-0.29 0.87,-0.4 0.26,-0.13 0.57,-0.29 0.84,-0.4l42.88 -18.07c0.34,-0.16 1.36,-0.62 1.71,-0.77 2.77,-1.25 -2.13,0.94 1.71,-0.77l11.13 -5.03c0.26,-0.13 0.58,-0.27 0.84,-0.4 0.27,-0.11 0.58,-0.27 0.86,-0.39l8.65 -2.85c0.26,-0.07 0.62,-0.16 0.87,-0.25l51.3 -23.16c10.49,-4.75 3.95,-0.36 12.95,-4.52 0.27,-0.11 0.6,-0.29 0.87,-0.4l5.11 -2.33c0.27,-0.11 0.6,-0.26 0.86,-0.39 0.03,-0 1.71,-0.77 1.71,-0.77l23.94 -10.8c1.01,-0.44 1.86,-0.83 2.56,-1.16l10.27 -4.65c0.26,-0.13 0.6,-0.29 0.87,-0.4l3.4 -1.56c0.26,-0.1 0.6,-0.2 0.86,-0.3l36.03 -15.07c0.98,-0.44 2.44,-1.1 3.42,-1.54l4.27 -1.96c2.82,-1.34 4.96,-3.15 7.82,-2.26l1.59 -1.95c-2.27,-4.11 -1.36,-0 -0.14,-5.37l8.02 -24.97c0.07,-0.28 0.12,-0.62 0.2,-0.92l13.36 -39.83c0.11,-0.29 0.23,-0.63 0.34,-0.93l3.97 -12.94c0.11,-0.29 0.22,-0.62 0.32,-0.93l3.15 -8.36c0.12,-0.31 0.22,-0.65 0.33,-0.94l12.15 -34.35c0.36,-0.95 0.57,-1.46 1.09,-2.8l2.44 -6.51c0.83,-2.1 0.82,-1.57 1.52,-3.73l37.48 -95.09c0.11,-0.29 0.22,-0.62 0.37,-0.93 0.94,-2.07 1.19,-2 2.14,-3.8l15.14 -32.87c0.13,-0.28 0.22,-0.62 0.36,-0.92l16.29 -32.09c2.04,-4.57 3.95,-5.05 7.58,-13.3 2.02,-4.54 5.47,-7.57 7.28,-12.39 0.97,-2.58 -0.22,-0.67 1.88,-3.77 3.38,-4.97 7.93,-8.12 9.96,-13.53l8.01 -12.46c7.93,-9.61 16.05,-23.32 26.48,-29.9l6.48 -6.57c-12.41,-10.1 -59.73,-45.35 -65.58,-55 -4.34,-7.14 -19.25,-19.12 -28.24,-22.5 -8.12,-3.03 -134.83,-108.62 -146.3,-117.95l-6.6 12.32c-4.62,7.67 0.78,-0.01 -2.55,6.52 -3.18,6.22 -23.26,30.03 -26.69,32.79 -3.41,2.73 -6.43,4.07 -10.67,9.5 -1.52,1.96 -3.73,5 -5.6,6.49 -5.24,4.19 -0.26,-1.55 -5.86,3.75 -1.74,1.63 -3.07,3.99 -4.8,5.62 -6.56,6.2 -0.15,-0.92 -5.87,3.77l-8.12 8.17c-3.07,2.01 1.39,-1.9 -3.36,2.01 -2.05,1.7 -2.81,3.33 -4.87,5.03l-13.26 10.25c-0.27,0.17 -0.56,0.34 -0.84,0.53l-30.7 23.38c-0.27,0.17 -0.58,0.3 -0.85,0.47l-10.82 7.85c-1.21,0.95 -1.41,1.38 -2.47,2.24l-5.85 3.99c-1.21,0.95 -1.39,1.36 -2.44,2.24l-5.86 3.91c-1.04,0.65 -1.49,1 -2.53,1.65 -0.27,0.17 -0.58,0.33 -0.84,0.5 -0.27,0.17 -0.56,0.31 -0.83,0.48l-30.9 21.54c-0.27,0.17 -0.57,0.36 -0.84,0.53l-37.7 24.96c-0.28,0.18 -0.56,0.37 -0.84,0.55l-3.37 2.02c-0.28,0.18 -0.56,0.37 -0.84,0.55l-28.54 18.2c-0.28,0.18 -0.57,0.39 -0.84,0.55l-3.38 2.04c-0.27,0.17 -0.56,0.37 -0.82,0.54l-26.05 16.53c-1.4,0.93 -1.93,1.42 -3.34,2.3 -2.43,1.5 -0.27,0.3 -2.54,1.38l-11.84 6.67c-0.28,0.16 -0.58,0.33 -0.84,0.5l-10.06 6.57c-0.27,0.17 -0.57,0.36 -0.84,0.53l-2.56 1.24c-0.64,0.28 -2.51,1.02 -2.59,1.06 -2.26,1.1 -0.1,-0.1 -2.53,1.4l-10.89 7.21c-0.28,0.16 -0.57,0.36 -0.84,0.5 -2.45,1.3 -3.62,2.17 -6.13,1.4l-3.18 3.9c1.39,2.5 0.26,4.3 -0.43,7.2l-1.07 9.95c-0.05,0.37 -0.29,1.46 -0.36,1.84l-3.54 15.55c-1.73,7.76 0.81,-3.59 -0.41,1.83l-3.47 15.56c-0.06,0.29 -0.15,0.65 -0.2,0.92l-4.94 27.37c-0.07,0.28 -0.15,0.63 -0.2,0.92l-1.23 5.49c-0.25,1.13 -0.16,0.7 -0.41,1.83l-1.43 6.41c-0.09,0.36 -0.33,1.45 -0.41,1.83 -0.23,1.04 -0.58,2.62 -0.82,3.66l-3.71 20.95c-0.01,0.27 -0.03,0.64 -0.06,0.9l-3.42 15.55c-0.07,0.28 -0.15,0.63 -0.2,0.92 -0.07,0.28 -0.15,0.63 -0.2,0.92 -0.09,0.39 -0.33,1.45 -0.41,1.83l-0.61 2.75c-0.07,0.28 -0.13,0.64 -0.2,0.92l-5.18 22.91c-0.06,0.26 -0.13,0.64 -0.18,0.91 -0.04,0.27 -0.09,0.62 -0.12,0.91 -0.03,0.26 -0.05,0.63 -0.06,0.9 -0.01,0.04 -0.01,3.52 -0,3.58l-21.35 105.95c-0.01,0.27 -0.03,0.64 -0.06,0.9l-6.09 27.47c-0.18,0.78 -0.38,1.67 -0.61,2.75l-4.7 26.43c-0.09,0.36 -0.35,1.44 -0.45,1.82l-4.09 18.31c-0.02,0.06 -0.37,1.66 -0.41,1.83 -0.09,0.39 -0.33,1.45 -0.41,1.83l-7.61 39.25c-0.06,0.29 -0.13,0.64 -0.2,0.92 -0.06,0.29 -0.13,0.64 -0.2,0.91l-0.82 3.66c-0.06,0.29 -0.13,0.64 -0.2,0.92l-1.02 4.58c-0.06,0.29 -0.13,0.64 -0.2,0.92l-1.02 4.58c-0.06,0.29 -0.13,0.64 -0.2,0.91l-3.34 14.67c-0.04,0.27 -0.12,0.62 -0.16,0.9l-0.76 9.04c-0.06,0.29 -0.16,0.64 -0.23,0.92 -0.06,0.29 -0.15,0.62 -0.22,0.9l-2.26 10.08c0,0 -0.41,1.83 -0.41,1.83 -0.07,0.28 -0.16,0.64 -0.2,0.92l-1.02 4.58c-0.07,0.28 -0.16,0.64 -0.2,0.91 -0.07,0.28 -0.16,0.64 -0.2,0.92l-0.41 1.83c-0.07,0.28 -0.16,0.64 -0.2,0.91l-0.42 1.85c0,0 -0.41,1.83 -0.41,1.83 -0.06,0.26 -0.15,0.63 -0.2,0.92 -0.06,0.26 -0.15,0.62 -0.2,0.91l-3.69 20.95c-0.32,4.6 -2.39,0.81 0.12,5.35l-3.18 3.9c-2.73,-0.96 -1.95,-0.45 -2.75,-0.64 -0.23,-0.06 -0.66,-0.17 -0.92,-0.23l-4.56 -0.88c-4.41,-0.34 -8.27,1.74 -12.17,3.53 -1.21,0.56 -0.49,0.22 -1.69,0.78l-9.37 4.52 -10.83 13.33 -3.64 13.8c-0.01,0.27 -0.05,0.63 -0.08,0.92 -0.03,0.26 -0.09,0.62 -0.14,0.89 -0.23,1.61 -0.29,0.87 -0.53,2.74l5.73 20.89c0.97,1.66 0.72,1.05 1.66,2.51l3.66 5.89c2.8,3.46 6.56,5.77 10.24,7.1l13.83 4.2c6.79,1.53 14.94,1.07 21.26,-2.11 0.27,-0.14 0.58,-0.3 0.85,-0.44 10.36,-5.71 19.71,-15.22 23.27,-27.51l-2.61 -23.88z"/>
   <polygon class="fil1" points="1365.61,203.4 1115.73,0 1042.63,89.81 1292.51,293.2 "/>
   <polygon class="fil2" points="1296.5,332.15 1003.68,93.8 948.07,162.13 1240.88,400.47 "/>
   <ellipse class="fil3" transform="matrix(-12.9771 -10.5631 11.9519 -14.6833 771.29 678.345)" rx="5.97" ry="5.27"/>
   <rect class="fil3" transform="matrix(-11.5029 -9.36314 9.36314 -11.5029 535.271 988.248)" width="1.86" height="21.06"/>
   <g>
    <path class="fil4" d="M466.59 1062.22c-112.94,-60.8 -296.59,-118.33 -373.75,25.16 -41.76,77.67 -15.8,165.96 87.11,146.32 46.25,-8.83 142.5,-54.98 197.81,-72.68 164.92,-52.77 371.09,-75.12 422.9,138.3 32.03,131.95 -88.94,228.78 -211.35,106.87 -50.18,-49.97 -70.18,-88.68 -153.63,-90.71 -94.29,-2.29 -164.87,56.05 -208.05,135.26 44.46,-90.83 128.37,-157.89 233.82,-145.76 75.44,8.68 92.9,42.16 141.75,86.71 106.37,97.03 195.21,21.51 164.64,-83.95 -70.27,-242.4 -359.19,-102.87 -508.54,-35.24 -242.39,109.76 -323.23,-121.04 -206.81,-266.66 117.19,-146.59 314.4,-101.97 460.61,-31.41 24.24,12.84 33.48,42.9 20.63,67.14 -12.84,24.24 -42.9,33.48 -67.14,20.63z"/>
   </g>
   <path class="fil5" d="M489.84 1018.33c-506.13,-268.17 -587.83,384.64 -243.41,226.19 155.63,-71.6 471.06,-200.98 537.82,59.01 30.96,120.58 -82.83,221.97 -212,69.79 -99.63,-117.38 -282.94,-61.37 -344.62,77.41"/>
  </g>
 </g>
</svg>
