<?xml version="1.0" encoding="UTF-8"?>
<svg version="1.1" xmlns="http://www.w3.org/2000/svg" width="512" height="768">
<path d="M0 0 C2.8079149 -0.00323508 5.6158039 -0.01241761 8.42370605 -0.02124023 C15.21095761 -0.03888283 21.9980307 -0.03524989 28.78528881 -0.02358967 C34.30906304 -0.01449879 39.83278779 -0.01335556 45.35656738 -0.01768494 C46.14738716 -0.01829787 46.93820694 -0.0189108 47.75299096 -0.01954231 C49.36030167 -0.02082141 50.96761236 -0.02211826 52.57492304 -0.02343267 C67.59206243 -0.03479669 82.60910362 -0.02179076 97.6262269 -0.00023121 C110.46831496 0.01763597 123.3102583 0.01453068 136.15234375 -0.00390625 C151.12142689 -0.02538725 166.09042431 -0.03369844 181.05952072 -0.0214572 C182.66040801 -0.02018321 184.26129531 -0.01892572 185.86218262 -0.01768494 C187.04320726 -0.01675928 187.04320726 -0.01675928 188.24809098 -0.01581493 C193.75529964 -0.01238363 199.2624532 -0.01814201 204.76965332 -0.02760315 C211.49534172 -0.03890534 218.22084379 -0.03561269 224.94651127 -0.01448017 C228.3679535 -0.00407859 231.78883482 -0.00186766 235.21031189 -0.01307678 C253.77905216 -0.06826019 271.87682742 0.83410785 289.359375 7.70507812 C290.12975098 7.99987061 290.90012695 8.29466309 291.69384766 8.59838867 C316.9690762 18.62383118 337.92361919 36.76272572 352.609375 59.51757812 C353.23070312 60.443125 353.85203125 61.36867187 354.4921875 62.32226562 C371.5095068 89.25999527 376.19978071 124.50230225 369.984375 155.51757812 C364.52537556 179.60575235 352.5073785 200.62900201 335.609375 218.51757812 C334.58070313 219.64292969 334.58070313 219.64292969 333.53125 220.79101562 C314.12878669 241.27139356 287.02594463 252.25941881 259.609375 256.51757812 C260.83269531 256.72511719 262.05601562 256.93265625 263.31640625 257.14648438 C297.58599055 263.27781669 328.31268967 280.37626402 348.671875 309.26757812 C350.00491468 311.33782914 351.31888855 313.42053765 352.609375 315.51757812 C353.2075 316.41992188 353.805625 317.32226562 354.421875 318.25195312 C371.22983478 344.81453242 375.62047112 378.6990217 370.484375 409.39257812 C369.91649084 411.78187877 369.29054864 414.15807553 368.609375 416.51757812 C368.42133301 417.20319824 368.23329102 417.88881836 368.03955078 418.59521484 C362.05063438 440.05907194 350.85832845 458.37472051 335.609375 474.51757812 C334.92359375 475.2678125 334.2378125 476.01804687 333.53125 476.79101562 C312.73116348 498.74666251 281.54091207 511.72675256 251.57421875 512.83398438 C236.79135651 513.16399675 222.87924662 512.48363656 208.609375 508.51757812 C207.95549805 508.34629395 207.30162109 508.17500977 206.62792969 507.99853516 C186.35099256 502.57781314 168.71095908 490.78291814 153.609375 476.51757812 C152.85914063 475.83179688 152.10890625 475.14601563 151.3359375 474.43945312 C144.72358132 468.17511569 139.62736017 461.07051097 134.609375 453.51757812 C133.9803125 452.58429688 133.35125 451.65101563 132.703125 450.68945312 C128.7891696 444.4627059 126.00809947 437.91563323 123.359375 431.08007812 C122.8651001 429.81151978 122.8651001 429.81151978 122.36083984 428.51733398 C120.53714529 423.6297393 119.14401356 418.7687156 117.99707031 413.67749023 C117.7348468 412.52002792 117.47262329 411.36256561 117.20245361 410.17002869 C117.00673767 409.29472 116.81102173 408.41941132 116.609375 407.51757812 C116.60717516 409.41484335 116.60717516 409.41484335 116.60493088 411.35043716 C116.56913938 441.45357898 116.51276986 471.55660683 116.43145405 501.65965684 C116.42143798 505.37417839 116.41159361 509.08870037 116.40185547 512.80322266 C116.39894341 513.91234796 116.39894341 513.91234796 116.39597252 515.04387984 C116.36504921 526.97727172 116.347999 538.91064444 116.33618078 550.8440688 C116.32371887 563.11163426 116.29610481 575.37909997 116.25476193 587.64660239 C116.2297698 595.20111404 116.21624718 602.75545999 116.21794543 610.31001356 C116.21797903 616.12726231 116.19681347 621.94429374 116.16820717 627.76146507 C116.15976397 630.12995918 116.15791975 632.49848863 116.16357231 634.86699104 C116.2401616 671.92633891 105.29967075 703.32129952 79.609375 730.51757812 C78.92359375 731.2678125 78.2378125 732.01804687 77.53125 732.79101562 C56.73116348 754.74666251 25.54091207 767.72675256 -4.42578125 768.83398438 C-19.20864349 769.16399675 -33.12075338 768.48363656 -47.390625 764.51757812 C-48.37144043 764.26065186 -48.37144043 764.26065186 -49.37207031 763.99853516 C-80.74714509 755.6108996 -107.92426743 732.86758903 -124.015625 705.04492188 C-129.84972042 694.60802599 -134.23000138 684.04153142 -137.390625 672.51757812 C-137.89916016 670.75607422 -137.89916016 670.75607422 -138.41796875 668.95898438 C-144.65541571 642.71571676 -141.15241502 613.00651936 -130.390625 588.51757812 C-130.10735352 587.86337891 -129.82408203 587.20917969 -129.53222656 586.53515625 C-115.78594709 555.39717512 -89.48934105 532.29570294 -58.16796875 519.79882812 C-48.75525753 516.21400533 -39.33216326 514.04292854 -29.390625 512.51757812 C-29.97851807 512.39753418 -30.56641113 512.27749023 -31.17211914 512.15380859 C-58.89848801 506.40575787 -81.66660102 496.09401771 -102.390625 476.51757812 C-103.51597656 475.48890625 -103.51597656 475.48890625 -104.6640625 474.43945312 C-120.95454939 459.00636028 -131.51204146 437.95148812 -137.390625 416.51757812 C-137.72964844 415.34324219 -138.06867188 414.16890625 -138.41796875 412.95898438 C-146.04773421 380.85771313 -139.4250022 344.75633202 -122.34716797 316.81005859 C-117.41354621 309.07117461 -111.7358426 302.1363872 -105.390625 295.51757812 C-104.58238281 294.63457031 -103.77414063 293.7515625 -102.94140625 292.84179688 C-86.03471293 274.97478316 -58.40350478 258.85875428 -33.27929688 257.39453125 C-31.6492243 257.39289955 -30.01922454 257.44827602 -28.390625 257.51757812 C-28.390625 256.85757812 -28.390625 256.19757813 -28.390625 255.51757812 C-29.05964844 255.50339844 -29.72867188 255.48921875 -30.41796875 255.47460938 C-57.7756054 254.11590796 -83.04292203 239.0412733 -102.390625 220.51757812 C-103.51017578 219.49277344 -103.51017578 219.49277344 -104.65234375 218.44726562 C-120.95484611 203.02674856 -131.51273251 181.94896848 -137.390625 160.51757812 C-137.72964844 159.34324219 -138.06867188 158.16890625 -138.41796875 156.95898438 C-145.9909357 125.09668564 -139.2712316 90.65918694 -123.390625 62.51757812 C-117.65747388 53.21616596 -110.9421928 45.34434883 -103.390625 37.51757812 C-102.28074219 36.31294922 -102.28074219 36.31294922 -101.1484375 35.08398438 C-95.23991052 28.83999158 -88.57411728 24.14466746 -81.390625 19.51757812 C-80.47925781 18.91042969 -79.56789062 18.30328125 -78.62890625 17.67773438 C-72.510995 13.82894856 -66.09218272 10.98267517 -59.390625 8.33007812 C-58.60365234 8.009021 -57.81667969 7.68796387 -57.00585938 7.35717773 C-38.45585868 0.31727061 -19.59885495 -0.06420794 0 0 Z M115.609375 256.51757812 C115.609375 293.47757812 115.609375 330.43757813 115.609375 368.51757812 C115.939375 368.51757812 116.269375 368.51757812 116.609375 368.51757812 C116.81691406 367.29425781 117.02445312 366.0709375 117.23828125 364.81054688 C123.23928798 331.26938559 139.58577651 301.27635539 167.55175781 280.9621582 C185.8143709 268.31107491 205.72157365 260.91704591 227.609375 257.51757812 C227.609375 257.18757813 227.609375 256.85757812 227.609375 256.51757812 C190.649375 256.51757812 153.689375 256.51757812 115.609375 256.51757812 Z " fill="#A258FE" transform="translate(140.390625,-0.517578125)"/>
<path d="M0 0 C2.8079149 -0.00323508 5.6158039 -0.01241761 8.42370605 -0.02124023 C15.21095761 -0.03888283 21.9980307 -0.03524989 28.78528881 -0.02358967 C34.30906304 -0.01449879 39.83278779 -0.01335556 45.35656738 -0.01768494 C46.14738716 -0.01829787 46.93820694 -0.0189108 47.75299096 -0.01954231 C49.36030167 -0.02082141 50.96761236 -0.02211826 52.57492304 -0.02343267 C67.59206243 -0.03479669 82.60910362 -0.02179076 97.6262269 -0.00023121 C110.46831496 0.01763597 123.3102583 0.01453068 136.15234375 -0.00390625 C151.12142689 -0.02538725 166.09042431 -0.03369844 181.05952072 -0.0214572 C182.66040801 -0.02018321 184.26129531 -0.01892572 185.86218262 -0.01768494 C187.04320726 -0.01675928 187.04320726 -0.01675928 188.24809098 -0.01581493 C193.75529964 -0.01238363 199.2624532 -0.01814201 204.76965332 -0.02760315 C211.49534172 -0.03890534 218.22084379 -0.03561269 224.94651127 -0.01448017 C228.3679535 -0.00407859 231.78883482 -0.00186766 235.21031189 -0.01307678 C253.77905216 -0.06826019 271.87682742 0.83410785 289.359375 7.70507812 C290.12975098 7.99987061 290.90012695 8.29466309 291.69384766 8.59838867 C316.9690762 18.62383118 337.92361919 36.76272572 352.609375 59.51757812 C353.23070312 60.443125 353.85203125 61.36867187 354.4921875 62.32226562 C371.5095068 89.25999527 376.19978071 124.50230225 369.984375 155.51757812 C364.52537556 179.60575235 352.5073785 200.62900201 335.609375 218.51757812 C334.58070313 219.64292969 334.58070313 219.64292969 333.53125 220.79101562 C320.3302614 234.72539248 302.55129339 244.77324071 284.484375 250.95507812 C283.52096191 251.28910645 283.52096191 251.28910645 282.53808594 251.62988281 C265.47663691 257.03920398 248.35918189 256.95442386 230.65112305 256.92163086 C227.85350678 256.92570481 225.05590753 256.93421086 222.25830078 256.94242859 C215.48470659 256.95951345 208.71120557 256.96047818 201.93759545 256.95521569 C196.42471957 256.95115319 190.91187096 256.95264204 185.39899635 256.95796394 C184.61054546 256.95871237 183.82209457 256.95946079 183.00975123 256.96023189 C181.40735293 256.96176357 179.80495464 256.96330192 178.20255635 256.96484686 C163.21835606 256.97853471 148.23420816 256.97316055 133.2500091 256.96166164 C119.58461233 256.95173428 105.91935106 256.96466797 92.25397518 256.98859584 C78.17337186 257.01306226 64.09283145 257.02257618 50.01220733 257.01594311 C42.1266303 257.01246744 34.24115733 257.0145727 26.35559654 257.03219414 C19.64265357 257.04701099 12.92988796 257.04742922 6.21694811 257.03012323 C2.80159485 257.02168758 -0.61318692 257.02149886 -4.02856255 257.03477478 C-42.3695386 257.17232831 -74.11113203 247.23110569 -102.390625 220.51757812 C-103.14085937 219.83179688 -103.89109375 219.14601562 -104.6640625 218.43945312 C-120.95454939 203.00636028 -131.51204146 181.95148812 -137.390625 160.51757812 C-137.72964844 159.34324219 -138.06867188 158.16890625 -138.41796875 156.95898438 C-145.9909357 125.09668564 -139.2712316 90.65918694 -123.390625 62.51757812 C-117.65747388 53.21616596 -110.9421928 45.34434883 -103.390625 37.51757812 C-102.28074219 36.31294922 -102.28074219 36.31294922 -101.1484375 35.08398438 C-95.23991052 28.83999158 -88.57411728 24.14466746 -81.390625 19.51757812 C-80.47925781 18.91042969 -79.56789062 18.30328125 -78.62890625 17.67773438 C-72.510995 13.82894856 -66.09218272 10.98267517 -59.390625 8.33007812 C-58.60365234 8.009021 -57.81667969 7.68796387 -57.00585938 7.35717773 C-38.45585868 0.31727061 -19.59885495 -0.06420794 0 0 Z " fill="#FE7161" transform="translate(140.390625,-0.517578125)"/>
<path d="M0 0 C3.58832066 0.0231404 7.17652685 0.02387166 10.7649231 0.02670288 C21.19158524 0.04751683 31.6181538 0.10336139 42.04470825 0.15512085 C65.39220825 0.23762085 88.73970825 0.32012085 112.79470825 0.40512085 C112.79470825 84.88512085 112.79470825 169.36512085 112.79470825 256.40512085 C77.77345825 256.52887085 77.77345825 256.52887085 42.04470825 256.65512085 C34.70897583 256.69153687 27.37324341 256.72795288 19.81521606 256.76547241 C10.7649231 256.78353882 10.7649231 256.78353882 6.51022339 256.78689575 C3.57764241 256.79057942 0.64535955 256.80539364 -2.28713989 256.8274231 C-42.50760045 257.11600001 -75.30258947 248.65197316 -105.20529175 220.40512085 C-105.95552612 219.7193396 -106.7057605 219.03355835 -107.47872925 218.32699585 C-123.76921614 202.89390301 -134.32670821 181.83903084 -140.20529175 160.40512085 C-140.54431519 159.23078491 -140.88333862 158.05644897 -141.2326355 156.8465271 C-148.80560245 124.98422836 -142.08589835 90.54672967 -126.20529175 62.40512085 C-120.47214062 53.10370868 -113.75685955 45.23189156 -106.20529175 37.40512085 C-105.09540894 36.20049194 -105.09540894 36.20049194 -103.96310425 34.9715271 C-98.05457727 28.7275343 -91.38878403 24.03221018 -84.20529175 19.40512085 C-83.29392456 18.79797241 -82.38255737 18.19082397 -81.443573 17.5652771 C-75.32566175 13.71649128 -68.90684947 10.87021789 -62.20529175 8.21762085 C-61.41831909 7.89656372 -60.63134644 7.57550659 -59.82052612 7.24472046 C-40.34215884 -0.14751089 -20.50528166 -0.15403928 0 0 Z " fill="#F24D1D" transform="translate(143.20529174804688,-0.405120849609375)"/>
<path d="M0 0 C1.43091311 0.00084942 2.86182751 0.00036501 4.29273987 -0.00132751 C8.1203019 -0.00217662 11.94757297 0.01526968 15.77506828 0.03639436 C19.79619689 0.05534553 23.8173346 0.05692594 27.83850098 0.06047058 C35.42767318 0.06973755 43.01671334 0.09427761 50.60582781 0.12451905 C59.25655967 0.15823121 67.90729836 0.17459103 76.55807972 0.18960536 C94.32980986 0.22083296 112.1014177 0.27348752 129.87304688 0.34057617 C129.96694454 18.77038845 130.03724674 37.20013772 130.08029556 55.6301384 C130.10082491 64.18962402 130.12875862 72.74896007 130.17480469 81.30834961 C130.21497023 88.77825446 130.24054941 96.24805087 130.24940085 103.71806073 C130.25456595 107.66476466 130.26649828 111.61115866 130.2959671 115.55776215 C130.58394741 155.72197357 122.07473796 188.48568251 93.87304688 218.34057617 C93.18726563 219.09081055 92.50148437 219.84104492 91.79492188 220.61401367 C70.99483535 242.56966055 39.80458394 255.54975061 9.83789062 256.65698242 C-4.94497162 256.9869948 -18.85708151 256.3066346 -33.12695312 252.34057617 C-33.78083008 252.16929199 -34.43470703 251.99800781 -35.10839844 251.8215332 C-66.48347322 243.43389765 -93.66059555 220.69058708 -109.75195312 192.86791992 C-115.58604854 182.43102404 -119.96632951 171.86452947 -123.12695312 160.34057617 C-123.46597656 159.16624023 -123.805 157.9919043 -124.15429688 156.78198242 C-130.39174383 130.53871481 -126.88874314 100.8295174 -116.12695312 76.34057617 C-115.84368164 75.68637695 -115.56041016 75.03217773 -115.26855469 74.3581543 C-101.52227521 43.22017316 -75.22566918 20.11870099 -43.90429688 7.62182617 C-42.48109824 7.08369573 -41.05535942 6.55222711 -39.62695312 6.02807617 C-39.01215088 5.79757568 -38.39734863 5.5670752 -37.76391602 5.32958984 C-25.49288984 1.07682107 -12.89452076 -0.10712053 0 0 Z " fill="#09CF83" transform="translate(126.126953125,511.659423828125)"/>
<path d="M0 0 C11.03351777 9.41367521 20.74177737 19.54327884 28.359375 31.921875 C28.9575 32.82421875 29.555625 33.7265625 30.171875 34.65625 C46.97983478 61.21882929 51.37047112 95.10331858 46.234375 125.796875 C45.66649084 128.18617565 45.04054864 130.56237241 44.359375 132.921875 C44.17133301 133.60749512 43.98329102 134.29311523 43.78955078 134.99951172 C37.80063438 156.46336882 26.60832845 174.77901738 11.359375 190.921875 C10.67359375 191.67210937 9.9878125 192.42234375 9.28125 193.1953125 C-11.51883652 215.15095938 -42.70908793 228.13104943 -72.67578125 229.23828125 C-87.45864349 229.56829363 -101.37075338 228.88793343 -115.640625 224.921875 C-116.29450195 224.75059082 -116.94837891 224.57930664 -117.62207031 224.40283203 C-137.89900744 218.98211001 -155.53904092 207.18721501 -170.640625 192.921875 C-171.39085937 192.23609375 -172.14109375 191.5503125 -172.9140625 190.84375 C-179.52641868 184.57941256 -184.62263983 177.47480785 -189.640625 169.921875 C-190.2696875 168.98859375 -190.89875 168.0553125 -191.546875 167.09375 C-208.8016997 139.64289253 -213.65150955 103.22395306 -206.5456543 71.75097656 C-198.09726316 38.49359384 -178.1962968 9.12488533 -148.63183594 -8.90380859 C-137.20918583 -15.64031509 -125.39339504 -20.46669517 -112.640625 -24.078125 C-111.46242188 -24.41972656 -110.28421875 -24.76132812 -109.0703125 -25.11328125 C-71.89193068 -33.89718465 -29.46200767 -24.12264413 0 0 Z " fill="#19BBFE" transform="translate(464.640625,283.078125)"/>
</svg>
