<?xml version="1.0" encoding="UTF-8"?>
<!DOCTYPE svg PUBLIC "-//W3C//DTD SVG 1.1//EN" "http://www.w3.org/Graphics/SVG/1.1/DTD/svg11.dtd">
<!-- Creator: CorelDRAW 2019 (64-Bit) -->
<svg xmlns="http://www.w3.org/2000/svg" xml:space="preserve" width="91.44mm" height="91.44mm" version="1.1" style="shape-rendering:geometricPrecision; text-rendering:geometricPrecision; image-rendering:optimizeQuality; fill-rule:evenodd; clip-rule:evenodd"
viewBox="0 0 1533.45 1533.45"
 xmlns:xlink="http://www.w3.org/1999/xlink">
 <defs>
  <style type="text/css">
   <![CDATA[
    .fil3 {fill:white;fill-rule:nonzero}
    .fil2 {fill:red;fill-opacity:0.149020}
    .fil1 {fill:url(#id0)}
    .fil0 {fill:url(#id1)}
   ]]>
  </style>
  <linearGradient id="id0" gradientUnits="userSpaceOnUse" x1="280.59" y1="334.21" x2="1252.89" y2="1199.27">
   <stop offset="0" style="stop-opacity:1; stop-color:#E35B00"/>
   <stop offset="1" style="stop-opacity:1; stop-color:#E8E000"/>
  </linearGradient>
  <linearGradient id="id1" gradientUnits="userSpaceOnUse" x1="250.74" y1="307.68" x2="1282.74" y2="1225.8">
   <stop offset="0" style="stop-opacity:1; stop-color:#FF6600"/>
   <stop offset="1" style="stop-opacity:1; stop-color:#FFF700"/>
  </linearGradient>
 </defs>
 <g id="Layer_x0020_1">
  <metadata id="CorelCorpID_0Corel-Layer"/>
  <g id="_2230945133200">
   <path class="fil0" d="M766.74 76.07c18.18,0 36.11,0.72 53.97,2.1l-8.33 -0.14 -7.53 -0.11c-11.08,0 -22.13,0.25 -33.07,0.83 -23.76,1.2 -47.16,3.69 -70.13,7.35 6.85,3.88 14.78,5.83 21.99,9.2 -0.91,0.51 -0.87,0.36 -1.67,0.83 -0.11,0.07 -0.62,0.29 -0.76,0.43 -1.2,0.69 -0.18,-0.14 -1.05,0.72 -2.83,0.11 -5.14,1.38 -7.93,2.54l-35.43 14.82c-4.38,2.97 2.21,3.48 7.9,4.96l27.42 5.94c6.48,1.2 10.07,2.32 12.97,2.14 0.14,-0.04 0.33,-0.04 0.51,-0.04 3.73,2.17 52.74,9.27 56.73,11.08 6.45,-0.15 14.42,2.93 20.76,3.08 4.71,1.3 9.02,1.63 13.44,2.61 1.67,1.49 0.65,-0.69 0.18,0.62l-0.25 0.25c0,0.04 -0.11,0.11 -0.11,0.15l0.07 3.48c0.07,0.94 -0.04,0.18 0.04,1.01l0.51 2.86c0.07,0.18 0.07,0.36 0.11,0.47l0.25 2.35c0.07,0.11 0.47,1.19 0.58,1.34l0.54 1.34c0.07,0.14 0.11,0.29 0.15,0.43 0.11,0.15 0.14,0.29 0.18,0.43 0.04,0.15 0.04,0.36 0.14,0.47 2.68,5.8 4.49,3.84 8.58,7.5 1.67,1.56 4.96,3.48 8.11,4.46 1.56,0.54 1.96,0.22 3.69,0.65 2.1,0.51 2.93,1.3 4.71,1.81l3.15 0.25c0.15,-0.04 0.33,-0.04 0.47,0 1.49,0.04 0.76,0.07 2.14,0.29l1.56 0.11c0.15,0.11 0.36,0.07 0.51,0.07 0.18,0 0.33,0 0.47,0 0.22,0.11 0.36,0.04 0.54,0.04 0.14,0.07 0.33,0.11 0.54,0.14 5.07,0.51 3.44,-0.54 6.27,0.51 -2.35,2.83 -8.62,5.4 -10.87,8.26 -1.96,0.43 -9.09,5.43 -10.43,6.41l-28.36 20.5c-1.2,1.3 -2.32,1.05 -0.47,2.32 2.39,1.59 32.56,0.4 38.69,0.18l12.64 -0.69 80.2 -4.27c2.21,-0.11 10.14,-0.69 11.88,-0.33 -3.44,2.86 -3.3,6.19 -4.2,10.03 -0.54,2.46 -1.96,4.13 -2.43,6.45 -0.04,0.14 0,0.36 -0.04,0.58l-0.04 1.52 -0.62 3.11 -20.79 23.98c-0.04,0.18 -0.22,0.25 -0.29,0.4l-1.85 1.74c-0.11,0.18 -0.33,0.33 -0.4,0.47 -1.05,1.16 -1.41,2.14 -2.61,3.88 -1.01,1.52 -1.96,2.25 -2.75,3.44 -0.94,1.38 -1.27,2.68 -2.1,3.91l-2.79 3.19c-2.06,2.72 -3.62,7.61 -5.98,10 -2.5,2.64 -7.17,11.12 -8.51,16.48l-27.71 31.99c-0.04,0.22 -0.22,0.29 -0.33,0.4l-1.81 1.74c-0.11,0.22 -0.33,0.36 -0.44,0.47 -1.01,1.2 -1.41,2.14 -2.57,3.88 -1.05,1.52 -1.96,2.25 -2.75,3.44 -0.94,1.38 -1.3,2.72 -2.1,3.91l-2.82 3.22c-2.03,2.68 -3.62,7.57 -5.94,9.96 -2.9,3.01 -8.51,13.73 -8.87,18.58l-0.94 15.43c0.04,0.11 0.11,0.29 0.14,0.4 0,0.18 0.04,0.36 0.07,0.47l0.65 2.35c0.11,0.07 0.14,0.25 0.18,0.4l2.57 4.09c0.07,0.14 0.22,0.29 0.29,0.36 0.15,0.18 0.15,0.54 1.34,1.56 4.13,3.77 10.36,5.9 15.65,6.09 3.51,0 6.63,0.62 10.11,0.04l3.77 -0.58c2.54,-0.51 2.5,0 3.73,-2.06l0.07 1.56c-1.96,2.32 -4.85,5.72 -6.3,8.73 -1.34,0.4 -0.07,-0.18 -1.12,1.01 -0.47,0.47 -1.52,1.96 -1.7,2.28 -1.45,1.92 -2.06,2.64 -3.3,4.93 -2.28,1.48 -27.46,35.97 -28.4,40.68 3.3,0.51 6.3,-1.27 10.25,-2.35l1.38 -0.36c0.14,0 0.33,-0.07 0.43,-0.07l30.54 -11.59c2.32,-0.83 4.31,-0.87 5.98,-2.93 1.49,-0.18 2.14,-0.43 3.66,-0.98 0.58,-0.22 1.34,-0.44 1.74,-0.69 1.3,-0.94 0.51,0 1.05,-1.2 3.26,0.18 3.19,-0.25 6.41,-1.85l12.64 -5.32c1.38,-0.69 2.61,-0.94 4.06,-1.49l34.09 -13.95c2.43,-0.8 2.54,-0.33 3.44,-2.28 3.8,-0.07 6.95,-2.14 10.47,-3.73 4.02,-1.92 5.98,-1.85 10.11,-4.42 3.51,-1.05 10.36,-8.51 13.62,-9.09l0.58 4.31c0.07,0.07 0.11,0.33 0.14,0.43l5.11 11.19c0.94,0.83 1.96,0.51 2.97,0.98 3.62,2.43 -2.93,-2.5 0.98,1.05 3.95,3.62 6.78,2.79 8.55,3.19 2.43,0.58 2.17,1.38 5.11,1.49l7.17 -0.94c0.18,-0.04 0.33,-0.07 0.44,-0.11 0.14,-0.04 0.36,-0.04 0.51,-0.07 0.69,-0.07 0.72,0 1.49,-0.11l4.67 -0.98c-3.12,6.74 -6.66,12.1 -10.32,18.8l-12.5 20.72c-4.02,7.72 -7.61,14.85 -11.63,23.36 4.35,0.87 18.95,-7.61 23.62,-9.85l23.04 -11.88 52.13 -28.94c3.51,-2.03 6.63,-3.77 10.47,-5.83 3.59,-2.1 7.06,-3.77 10.43,-5.8 1.88,-1.09 9.06,-4.85 10.21,-6.09 4.13,-2.93 106.39,-102.01 115.41,-110.37l22.28 -21.48c7.32,7.43 14.45,15.03 21.41,22.82l-0.07 2.5c0.04,0.54 0.07,1.59 0.15,1.96 0,0.14 0.07,0.33 0.11,0.54 -0.04,0.11 0.07,0.29 0.04,0.43l0.58 4.78c0.4,3.66 -0.18,-2.79 0.14,0.98l0.33 12.42c0.07,0.4 0.11,1.27 0.11,1.48 0.04,0.94 0.04,1.27 0.11,2.03l0 6.92c0.36,5.33 1.49,10.47 1.01,15.83l-0.43 6.19c-0.44,4.49 0.33,2.79 0.18,6.01l1.05 22.24c-0.04,0.11 -0.04,0.36 0,0.51l-0.11 4.56c0.04,1.92 -0.04,3.37 0.07,5l0.07 10.07c-0.07,0.18 0,0.29 -0.04,0.43l-0.11 5.61c0.04,0.15 0.07,0.33 0.04,0.47l0.33 6.95c-0.04,0.11 0.04,0.29 -0.04,0.51l0.91 16.73c0,0.18 0.07,0.4 0.14,0.47l0 4.02c-0.07,0.15 0,0.36 -0.11,0.58l0.33 11.45c0,0.25 0.07,0.76 0.07,1.01l1.7 19.41c0.4,1.49 0.22,0.04 0.43,1.85 0.07,1.05 -0.04,1.85 0.04,2.54l0.94 3.22c0,0.15 0.04,0.33 0.04,0.47l1.23 7.1c0.07,0.76 0.07,1.45 0.15,2.39l5.18 18.8c0.83,3.08 -0.29,0.91 1.09,4.2l1.09 2.03c0.07,0.18 0.11,0.36 0.25,0.47 -0.07,0.14 0.04,0.29 0.07,0.43 0.36,0.94 0.18,0.36 0.36,1.41l8.44 18c0.22,0.4 0.25,0.51 0.47,0.83l6.88 8.08 7.32 4.89 0.65 0.25 13.22 44.59c-0.51,2.14 3.84,14.78 4.71,17.82 0.87,3.19 4.93,15.36 6.99,17.06 3.84,-8.33 9.42,-27.96 11.19,-36.77l13.55 -51.76c0.4,-1.2 4.27,-15.87 3.88,-17.32 0.76,-3.33 0.43,-7.53 0.36,-10.9 -0.04,-2.25 0.04,-3.3 0.14,-5.58 0.04,-2.32 -0.33,-3.33 0.18,-5.58 2.9,-0.18 1.92,0.65 3.55,-2.9l2.93 -0.04c0,0.76 -0.98,1.16 1.96,1.85l5.54 18.62c-0.51,2.14 3.84,14.74 4.71,17.82 0.91,3.19 4.93,15.36 6.99,17.06 2.28,-4.93 5.14,-13.8 7.46,-22.02 1.05,1.59 2.1,3.04 3.04,3.98l7.82 9.92c0.47,0.54 0.69,0.58 1.05,1.05l2.5 2.32c21.59,66.94 33.29,138.34 33.29,212.45 0,381.47 -309.2,690.64 -690.64,690.64 -381.43,0 -690.67,-309.17 -690.67,-690.64 0,-381.47 309.24,-690.67 690.67,-690.67zm0 -76.07c22.68,0 45.17,0.98 67.34,2.9l-7.32 0.36c-23.73,1.16 -47.13,3.69 -70.13,7.35 6.85,3.88 14.78,5.83 21.99,9.16 -0.91,0.54 -0.87,0.4 -1.67,0.87 -0.11,0.07 -0.62,0.29 -0.76,0.43 -1.2,0.69 -0.15,-0.14 -1.05,0.73 -2.79,0.07 -5.14,1.38 -7.9,2.54l-11.55 4.82c-199.37,2.93 -379.55,84.84 -510.57,215.93 -133.52,133.45 -216.07,317.9 -216.07,521.65 0,203.76 82.55,388.21 216.04,521.62 133.45,133.52 317.9,216.07 521.65,216.07 203.76,0 388.21,-82.55 521.62,-216.04 133.52,-133.45 216.07,-317.9 216.07,-521.65 0,-114.86 -26.26,-223.61 -73.1,-320.54l-0.11 -3.91c-0.04,-2.25 0.04,-3.3 0.11,-5.58 0.04,-2.35 -0.33,-3.33 0.18,-5.58 2.9,-0.18 1.96,0.65 3.55,-2.9l2.93 -0.04c0,0.83 -1.3,1.2 2.54,1.99l3.33 2.5c1.74,1.45 0.8,2.06 2.1,0.65l2.43 1.16 -1.45 3.04c1.34,-0.8 1.05,-1.05 2.64,-1.01 -1.59,1.41 -2.5,0.58 1.12,3.51l1.34 1.96c1.85,3.3 4.89,2.61 2.97,6.7 0,0 1.2,-0.4 1.27,-0.33 1.23,0.25 0.22,-0.25 0.87,0.54l1.16 2.57c0.11,0.14 0.18,0.25 0.22,0.4l2.9 4.17c0,0.15 0.07,0.29 0.11,0.36 1.7,2.86 4.17,7.1 6.19,9.09l7.79 9.92c0.47,0.51 0.69,0.54 1.09,1.05 36.66,89.51 56.83,187.53 56.83,290.26 0,211.58 -85.85,403.38 -224.59,542.08 -138.74,138.77 -330.54,224.62 -542.12,224.62 -211.73,0 -403.38,-85.85 -542.08,-224.59 -138.77,-138.74 -224.66,-330.54 -224.66,-542.12 0,-211.73 85.89,-403.38 224.62,-542.08 138.74,-138.77 330.39,-224.66 542.12,-224.66zm16.08 18.69l-0.62 -0.25c0.91,-0.54 0.51,-0.69 0.62,0.25zm648.47 404.91c0.65,1.01 0.76,0.54 -0.4,0.54l0.4 -0.54zm-92.55 -122.69c-15.87,-19.45 -32.67,-38.11 -50.39,-55.82l-6.19 -6.19 10.25 -9.78 10.61 -10.25 5.8 5.76c9.82,9.78 19.38,19.89 28.62,30.25l0.04 0.69c0.04,0.94 0.04,1.27 0.15,2.03l0 6.92c0.33,5.29 1.48,10.43 0.98,15.83l-0.43 6.19c-0.44,4.45 0.33,2.79 0.22,5.98l0.36 8.4zm-245.81 -196.04l-0.04 0 0.18 -0.04 -0.14 0.04zm-365.1 -10.69l-0.62 -0.25c0.91,-0.54 0.51,-0.69 0.62,0.25zm226.65 113.63l0.29 -0.58 0.51 0.22 -0.8 0.36zm-60.42 178.84l-10.76 13.55 -0.04 -0.15 0.04 0.15 -1.56 1.92c-0.11,0.04 -0.29,0.04 -0.33,0.07 0,0 -0.22,0.14 -0.22,0.18 -1.05,1.34 -0.33,-0.62 0.22,0.72l0.33 -0.98 12.32 -15.5 0 0.04zm482.21 112.44c0.65,1.01 0.8,0.58 -0.36,0.58l0.36 -0.58zm-55.49 49.41l-0.18 0.65c-0.54,-0.83 -0.8,-0.43 0.18,-0.65zm0.91 3.37l-0.4 0.62c-0.69,-0.98 -0.76,-0.58 0.4,-0.62zm0.18 2.35l0.43 0.83 -0.65 -0.25 0.22 -0.58zm-295.29 -133.74l1.38 -3.01c0.07,0.18 0.07,0.51 0.11,0.47l-0.51 1.99c-0.51,1.01 -0.18,0.91 -0.98,0.54zm-205.93 -275.59c-0.62,0.51 -0.29,0.8 -0.54,-0.18l0.54 0.18zm-1.2 0.11c-1.34,0.54 -0.62,0.72 -0.76,-0.58l0.76 0.58zm169.42 255.05l0.54 -1.27c0.4,1.23 0.94,0.69 -0.54,1.27zm3.84 -3.55l0.29 -0.44c0.62,0.94 0.65,0.47 -0.29,0.44z"/>
   <path class="fil1" d="M782.33 138.74c6.44,-0.15 14.41,2.93 20.73,3.09 4.73,1.3 9.03,1.6 13.45,2.59 1.68,1.49 0.65,-0.69 0.19,0.61l-0.27 0.27c0,0.04 -0.11,0.12 -0.11,0.15l0.08 3.47c0.08,0.95 -0.04,0.19 0.04,1.03l0.49 2.86c0.08,0.15 0.08,0.34 0.11,0.46l0.27 2.36c0.08,0.11 0.46,1.18 0.57,1.33l0.53 1.33c0.08,0.15 0.11,0.31 0.15,0.46 0.12,0.11 0.15,0.27 0.19,0.42 0.04,0.15 0.04,0.34 0.15,0.46 2.67,5.79 4.5,3.85 8.57,7.51 1.68,1.56 4.96,3.47 8.12,4.46 1.56,0.53 1.94,0.23 3.7,0.65 2.1,0.49 2.93,1.29 4.69,1.83l3.16 0.23c0.15,-0.04 0.34,-0.04 0.46,0 1.49,0.04 0.76,0.08 2.17,0.31l1.52 0.11c0.15,0.11 0.38,0.08 0.53,0.08 0.15,0 0.31,0 0.46,0 0.23,0.08 0.38,0.04 0.53,0.04 0.15,0.04 0.34,0.08 0.57,0.11 5.07,0.53 3.43,-0.53 6.25,0.53 -2.36,2.82 -8.61,5.37 -10.86,8.23 -1.94,0.46 -9.11,5.45 -10.44,6.44l-28.35 20.5c-1.18,1.3 -2.32,1.03 -0.46,2.29 2.36,1.6 32.55,0.42 38.68,0.19l12.61 -0.69 80.23 -4.27c2.21,-0.11 10.14,-0.69 11.85,-0.34 -3.43,2.86 -3.28,6.21 -4.19,10.06 -0.53,2.44 -1.94,4.12 -2.4,6.44 -0.04,0.15 0,0.34 -0.04,0.57l-0.04 1.52 -0.65 3.12 -20.77 23.97c-0.04,0.19 -0.23,0.27 -0.31,0.38l-1.83 1.75c-0.12,0.19 -0.34,0.34 -0.42,0.46 -1.03,1.18 -1.41,2.13 -2.59,3.89 -1.03,1.52 -1.94,2.25 -2.74,3.43 -0.95,1.37 -1.3,2.7 -2.1,3.93l-2.82 3.2c-2.06,2.71 -3.62,7.59 -5.94,9.99 -2.52,2.63 -7.2,11.13 -8.54,16.46l-27.71 32.01c-0.04,0.19 -0.23,0.27 -0.31,0.38l-1.83 1.75c-0.11,0.19 -0.34,0.34 -0.42,0.46 -1.03,1.18 -1.41,2.13 -2.59,3.89 -1.03,1.52 -1.94,2.25 -2.74,3.43 -0.95,1.37 -1.3,2.7 -2.1,3.93l-2.82 3.2c-2.06,2.7 -3.62,7.58 -5.94,9.98 -2.9,3.01 -8.54,13.72 -8.88,18.56l-0.95 15.44c0.04,0.11 0.12,0.31 0.15,0.42 0,0.15 0.04,0.34 0.08,0.46l0.65 2.36c0.11,0.08 0.15,0.23 0.19,0.38l2.55 4.12c0.08,0.11 0.23,0.27 0.31,0.34 0.15,0.19 0.15,0.53 1.33,1.56 4.12,3.77 10.37,5.91 15.66,6.1 3.51,0 6.63,0.61 10.1,0.04l3.77 -0.61c2.52,-0.49 2.48,0 3.73,-2.06l0.04 1.56c-1.94,2.32 -4.84,5.72 -6.29,8.73 -1.33,0.42 -0.08,-0.19 -1.11,1.03 -0.49,0.46 -1.52,1.94 -1.72,2.29 -1.45,1.91 -2.06,2.63 -3.32,4.92 -2.25,1.49 -27.44,35.98 -28.39,40.66 3.32,0.53 6.33,-1.26 10.25,-2.32l1.37 -0.38c0.15,0 0.34,-0.08 0.46,-0.08l30.53 -11.58c2.32,-0.84 4.31,-0.88 5.98,-2.93 1.49,-0.19 2.13,-0.42 3.66,-0.99 0.57,-0.19 1.33,-0.42 1.71,-0.69 1.33,-0.92 0.53,0 1.07,-1.18 3.28,0.19 3.2,-0.27 6.4,-1.87l12.65 -5.3c1.37,-0.69 2.59,-0.95 4.04,-1.49l34.11 -13.95c2.4,-0.8 2.52,-0.34 3.43,-2.29 3.81,-0.08 6.97,-2.13 10.48,-3.73 4,-1.91 5.98,-1.83 10.1,-4.42 3.5,-1.03 10.37,-8.5 13.61,-9.07l0.61 4.31c0.04,0.08 0.08,0.31 0.12,0.42l5.11 11.21c0.95,0.84 1.98,0.49 2.97,0.95 3.62,2.44 -2.93,-2.48 0.99,1.07 3.96,3.62 6.79,2.78 8.54,3.2 2.44,0.57 2.17,1.37 5.11,1.49l7.17 -0.95c0.19,-0.04 0.34,-0.08 0.46,-0.11 0.15,-0.04 0.34,-0.04 0.5,-0.08 0.69,-0.08 0.72,0 1.49,-0.12l4.69 -0.95c-3.12,6.71 -6.67,12.08 -10.33,18.79l-12.5 20.73c-4.04,7.7 -7.62,14.82 -11.62,23.36 4.35,0.84 18.94,-7.62 23.63,-9.87l23.02 -11.89 52.14 -28.93c3.51,-2.02 6.63,-3.77 10.44,-5.83 3.62,-2.09 7.09,-3.77 10.44,-5.79 1.91,-1.11 9.07,-4.88 10.21,-6.1 3.7,-2.59 84.26,-80.53 108.92,-104.2 18.75,19.09 36.32,39.33 52.59,60.6l0.88 18.9c-0.04,0.11 -0.04,0.34 0,0.49l-0.11 4.57c0.04,1.91 -0.04,3.35 0.08,4.99l0.08 10.06c-0.08,0.19 0,0.31 -0.04,0.46l-0.11 5.6c0.04,0.15 0.08,0.34 0.04,0.46l0.34 6.97c-0.04,0.11 0.04,0.31 -0.04,0.49l0.91 16.73c0,0.19 0.08,0.42 0.11,0.49l0 4c-0.04,0.15 0,0.38 -0.08,0.57l0.31 11.47c0,0.23 0.08,0.76 0.08,0.99l1.72 19.44c0.38,1.49 0.19,0.04 0.42,1.83 0.08,1.07 -0.04,1.87 0.04,2.55l0.95 3.2c0,0.15 0.04,0.34 0.04,0.49l1.22 7.09c0.08,0.76 0.08,1.45 0.15,2.4l5.18 18.79c0.84,3.09 -0.31,0.91 1.07,4.19l1.11 2.06c0.08,0.15 0.11,0.34 0.23,0.46 -0.04,0.15 0.04,0.31 0.08,0.42 0.38,0.95 0.19,0.38 0.38,1.41l8.42 18.03c0.23,0.38 0.27,0.49 0.49,0.84l6.86 8.08 7.32 4.88 0.65 0.27 13.22 44.59c-0.5,2.13 3.85,14.75 4.73,17.8 0.88,3.2 4.92,15.36 6.97,17.07 3.85,-8.35 9.41,-27.97 11.2,-36.78l13.53 -51.75c0.27,-0.72 1.83,-6.56 2.9,-11.28 27.52,72.07 42.61,150.27 42.61,232.02 0,359.39 -291.36,650.71 -650.71,650.71 -359.35,0 -650.71,-291.32 -650.71,-650.71 0,-333.21 250.47,-607.84 573.35,-646.1l22.75 4.92c6.48,1.18 10.06,2.33 12.96,2.13 0.15,-0.04 0.34,-0.04 0.49,-0.04 3.73,2.17 52.75,9.26 56.75,11.09zm172.15 69.06l0.31 -0.57 0.49 0.23 -0.8 0.34zm-60.41 178.86l-10.75 13.53 -0.04 -0.11 0.04 0.11 -1.56 1.94c-0.11,0.04 -0.31,0.04 -0.34,0.08 0,0 -0.19,0.11 -0.19,0.15 -1.07,1.37 -0.34,-0.61 0.19,0.72l0.34 -0.95 12.31 -15.51 0 0.04zm426.7 161.86l-0.15 0.65c-0.57,-0.84 -0.8,-0.46 0.15,-0.65zm0.91 3.35l-0.38 0.61c-0.69,-0.99 -0.76,-0.57 0.38,-0.61zm0.19 2.36l0.42 0.84 -0.65 -0.27 0.23 -0.57zm-295.29 -133.73l1.37 -3.01c0.08,0.15 0.08,0.49 0.11,0.46l-0.53 1.98c-0.5,1.03 -0.15,0.92 -0.95,0.57zm-205.95 -275.62c-0.61,0.53 -0.27,0.8 -0.53,-0.15l0.53 0.15zm-1.18 0.12c-1.33,0.57 -0.61,0.72 -0.76,-0.57l0.76 0.57zm169.41 255.08l0.57 -1.3c0.38,1.26 0.91,0.69 -0.57,1.3zm3.85 -3.58l0.31 -0.42c0.61,0.95 0.65,0.46 -0.31,0.42z"/>
   <path class="fil2" d="M766.74 76.09c18.18,0 36.13,0.72 53.97,2.1l-8.31 -0.15 -7.55 -0.11c-11.09,0 -22.14,0.27 -33.08,0.84 -23.74,1.18 -47.14,3.7 -70.13,7.36 6.86,3.89 14.79,5.83 21.99,9.18 -0.91,0.53 -0.88,0.38 -1.68,0.84 -0.11,0.08 -0.61,0.31 -0.76,0.46 -1.18,0.69 -0.15,-0.15 -1.03,0.72 -2.82,0.08 -5.15,1.37 -7.93,2.52l-35.44 14.83c-4.38,2.97 2.21,3.47 7.89,4.95l27.44 5.94c6.48,1.18 10.06,2.33 12.96,2.13 0.15,-0.04 0.34,-0.04 0.49,-0.04 3.73,2.17 52.75,9.26 56.75,11.09 6.44,-0.15 14.41,2.93 20.73,3.09 4.73,1.3 9.03,1.6 13.45,2.59 1.68,1.49 0.65,-0.69 0.19,0.61l-0.27 0.27c0,0.04 -0.11,0.12 -0.11,0.15l0.08 3.47c0.08,0.95 -0.04,0.19 0.04,1.03l0.49 2.86c0.08,0.15 0.08,0.34 0.11,0.46l0.27 2.36c0.08,0.11 0.46,1.18 0.57,1.33l0.53 1.33c0.08,0.15 0.11,0.31 0.15,0.46 0.12,0.11 0.15,0.27 0.19,0.42 0.04,0.15 0.04,0.34 0.15,0.46 2.67,5.79 4.5,3.85 8.57,7.51 1.68,1.56 4.96,3.47 8.12,4.46 1.56,0.53 1.94,0.23 3.7,0.65 2.1,0.49 2.93,1.29 4.69,1.83l3.16 0.23c0.15,-0.04 0.34,-0.04 0.46,0 1.49,0.04 0.76,0.08 2.17,0.31l1.52 0.11c0.15,0.11 0.38,0.08 0.53,0.08 0.15,0 0.31,0 0.46,0 0.23,0.08 0.38,0.04 0.53,0.04 0.15,0.04 0.34,0.08 0.57,0.11 5.07,0.53 3.43,-0.53 6.25,0.53 -2.36,2.82 -8.61,5.37 -10.86,8.23 -1.94,0.46 -9.11,5.45 -10.44,6.44l-28.35 20.5c-1.18,1.3 -2.32,1.03 -0.46,2.29 2.36,1.6 32.55,0.42 38.68,0.19l12.61 -0.69 80.23 -4.27c2.21,-0.11 10.14,-0.69 11.85,-0.34 -3.43,2.86 -3.28,6.21 -4.19,10.06 -0.53,2.44 -1.94,4.12 -2.4,6.44 -0.04,0.15 0,0.34 -0.04,0.57l-0.04 1.52 -0.65 3.12 -20.77 23.97c-0.04,0.19 -0.23,0.27 -0.31,0.38l-1.83 1.75c-0.12,0.19 -0.34,0.34 -0.42,0.46 -1.03,1.18 -1.41,2.13 -2.59,3.89 -1.03,1.52 -1.94,2.25 -2.74,3.43 -0.95,1.37 -1.3,2.7 -2.1,3.93l-2.82 3.2c-2.06,2.71 -3.62,7.59 -5.94,9.99 -2.52,2.63 -7.2,11.13 -8.54,16.46l-27.71 32.01c-0.04,0.19 -0.23,0.27 -0.31,0.38l-1.83 1.75c-0.11,0.19 -0.34,0.34 -0.42,0.46 -1.03,1.18 -1.41,2.13 -2.59,3.89 -1.03,1.52 -1.94,2.25 -2.74,3.43 -0.95,1.37 -1.3,2.7 -2.1,3.93l-2.82 3.2c-2.06,2.7 -3.62,7.58 -5.94,9.98 -2.9,3.01 -8.54,13.72 -8.88,18.56l-0.95 15.44c0.04,0.11 0.12,0.31 0.15,0.42 0,0.15 0.04,0.34 0.08,0.46l0.65 2.36c0.11,0.08 0.15,0.23 0.19,0.38l2.55 4.12c0.08,0.11 0.23,0.27 0.31,0.34 0.15,0.19 0.15,0.53 1.33,1.56 4.12,3.77 10.37,5.91 15.66,6.1 3.51,0 6.63,0.61 10.1,0.04l3.77 -0.61c2.52,-0.49 2.48,0 3.73,-2.06l0.04 1.56c-1.94,2.32 -4.84,5.72 -6.29,8.73 -1.33,0.42 -0.08,-0.19 -1.11,1.03 -0.49,0.46 -1.52,1.94 -1.72,2.29 -1.45,1.91 -2.06,2.63 -3.32,4.92 -2.25,1.49 -27.44,35.98 -28.39,40.66 3.32,0.53 6.33,-1.26 10.25,-2.32l1.37 -0.38c0.15,0 0.34,-0.08 0.46,-0.08l30.53 -11.58c2.32,-0.84 4.31,-0.88 5.98,-2.93 1.49,-0.19 2.13,-0.42 3.66,-0.99 0.57,-0.19 1.33,-0.42 1.71,-0.69 1.33,-0.92 0.53,0 1.07,-1.18 3.28,0.19 3.2,-0.27 6.4,-1.87l12.65 -5.3c1.37,-0.69 2.59,-0.95 4.04,-1.49l34.11 -13.95c2.4,-0.8 2.52,-0.34 3.43,-2.29 3.81,-0.08 6.97,-2.13 10.48,-3.73 4,-1.91 5.98,-1.83 10.1,-4.42 3.5,-1.03 10.37,-8.5 13.61,-9.07l0.61 4.31c0.04,0.08 0.08,0.31 0.12,0.42l5.11 11.21c0.95,0.84 1.98,0.49 2.97,0.95 3.62,2.44 -2.93,-2.48 0.99,1.07 3.96,3.62 6.79,2.78 8.54,3.2 2.44,0.57 2.17,1.37 5.11,1.49l7.17 -0.95c0.19,-0.04 0.34,-0.08 0.46,-0.11 0.15,-0.04 0.34,-0.04 0.5,-0.08 0.69,-0.08 0.72,0 1.49,-0.12l4.69 -0.95c-3.12,6.71 -6.67,12.08 -10.33,18.79l-12.5 20.73c-4.04,7.7 -7.62,14.82 -11.62,23.36 4.35,0.84 18.94,-7.62 23.63,-9.87l23.02 -11.89 52.14 -28.93c3.51,-2.02 6.63,-3.77 10.44,-5.83 3.62,-2.09 7.09,-3.77 10.44,-5.79 1.91,-1.11 9.07,-4.88 10.21,-6.1 4.15,-2.93 106.41,-101.99 115.4,-110.37l22.3 -21.5c7.32,7.43 14.44,15.05 21.42,22.83l-0.08 2.52c0.04,0.53 0.08,1.6 0.15,1.94 0,0.15 0.04,0.34 0.08,0.53 -0.04,0.11 0.08,0.31 0.04,0.46l0.61 4.76c0.38,3.66 -0.19,-2.78 0.11,0.99l0.34 12.42c0.08,0.38 0.11,1.26 0.11,1.49 0.04,0.95 0.04,1.26 0.11,2.02l0 6.94c0.34,5.3 1.49,10.44 0.99,15.82l-0.42 6.21c-0.46,4.46 0.31,2.78 0.19,5.98l1.03 22.26c-0.04,0.11 -0.04,0.34 0,0.49l-0.11 4.57c0.04,1.91 -0.04,3.35 0.08,4.99l0.08 10.06c-0.08,0.19 0,0.31 -0.04,0.46l-0.11 5.6c0.04,0.15 0.08,0.34 0.04,0.46l0.34 6.97c-0.04,0.11 0.04,0.31 -0.04,0.49l0.91 16.73c0,0.19 0.08,0.42 0.11,0.49l0 4c-0.04,0.15 0,0.38 -0.08,0.57l0.31 11.47c0,0.23 0.08,0.76 0.08,0.99l1.72 19.44c0.38,1.49 0.19,0.04 0.42,1.83 0.08,1.07 -0.04,1.87 0.04,2.55l0.95 3.2c0,0.15 0.04,0.34 0.04,0.49l1.22 7.09c0.08,0.76 0.08,1.45 0.15,2.4l5.18 18.79c0.84,3.09 -0.31,0.91 1.07,4.19l1.11 2.06c0.08,0.15 0.11,0.34 0.23,0.46 -0.04,0.15 0.04,0.31 0.08,0.42 0.38,0.95 0.19,0.38 0.38,1.41l8.42 18.03c0.23,0.38 0.27,0.49 0.49,0.84l6.86 8.08 7.32 4.88 0.65 0.27 13.22 44.59c-0.5,2.13 3.85,14.75 4.73,17.8 0.88,3.2 4.92,15.36 6.97,17.07 3.85,-8.35 9.41,-27.97 11.2,-36.78l13.53 -51.75c0.42,-1.18 4.31,-15.85 3.89,-17.3 0.76,-3.35 0.46,-7.55 0.38,-10.9 -0.04,-2.25 0.04,-3.32 0.11,-5.6 0.04,-2.32 -0.31,-3.32 0.19,-5.56 2.9,-0.19 1.94,0.65 3.54,-2.9l2.93 -0.04c0,0.76 -0.95,1.14 1.98,1.83l5.53 18.64c-0.49,2.13 3.85,14.75 4.73,17.8 0.88,3.2 4.92,15.36 6.97,17.07 2.29,-4.92 5.15,-13.8 7.47,-22.03 1.03,1.6 2.1,3.05 3.05,4l7.81 9.91c0.46,0.53 0.69,0.57 1.07,1.07l2.48 2.32c21.61,66.92 33.31,138.31 33.31,212.43 0,381.46 -309.24,690.65 -690.65,690.65 -381.42,0 -690.65,-309.2 -690.65,-690.65 0,-381.46 309.24,-690.65 690.65,-690.65zm-38.91 18.1l-0.61 -0.27c0.92,-0.53 0.5,-0.69 0.61,0.27zm226.65 113.61l0.31 -0.57 0.49 0.23 -0.8 0.34zm-60.41 178.86l-10.75 13.53 -0.04 -0.11 0.04 0.11 -1.56 1.94c-0.11,0.04 -0.31,0.04 -0.34,0.08 0,0 -0.19,0.11 -0.19,0.15 -1.07,1.37 -0.34,-0.61 0.19,0.72l0.34 -0.95 12.31 -15.51 0 0.04zm482.22 112.43c0.65,1.03 0.76,0.57 -0.38,0.57l0.38 -0.57zm-55.53 49.43l-0.15 0.65c-0.57,-0.84 -0.8,-0.46 0.15,-0.65zm0.91 3.35l-0.38 0.61c-0.69,-0.99 -0.76,-0.57 0.38,-0.61zm0.19 2.36l0.42 0.84 -0.65 -0.27 0.23 -0.57zm-295.29 -133.73l1.37 -3.01c0.08,0.15 0.08,0.49 0.11,0.46l-0.53 1.98c-0.5,1.03 -0.15,0.92 -0.95,0.57zm-205.95 -275.62c-0.61,0.53 -0.27,0.8 -0.53,-0.15l0.53 0.15zm-1.18 0.12c-1.33,0.57 -0.61,0.72 -0.76,-0.57l0.76 0.57zm169.41 255.08l0.57 -1.3c0.38,1.26 0.91,0.69 -0.57,1.3zm3.85 -3.58l0.31 -0.42c0.61,0.95 0.65,0.46 -0.31,0.42z"/>
   <path class="fil3" d="M252.44 644.16l0 246.93 12.39 0 0 -246.93 -12.39 0zm-53.94 -4.75l0 -1.81 134.42 0 0 1.81 -44.12 6.12c-1.52,11.55 -2.79,27.02 -3.91,46.58 -1.09,19.49 -1.56,36.55 -1.56,51.11l0 76.54c0,18.33 0.91,37.53 2.86,57.41 20.28,6.38 41.15,9.6 62.78,9.6 10.43,0 20.03,-0.62 28.8,-1.74 8.8,-1.23 14.93,-2.32 18.51,-3.4l18.51 -48.58 2.68 0 -8.37 65.02 -210.97 0 0 -1.81 42.56 -6.27c1.41,-5.72 2.61,-15.83 3.66,-30.43 0.94,-14.56 1.81,-29.63 2.35,-45.17 0.62,-15.54 0.91,-26.55 0.91,-32.93l0 -44.81c0,-9.89 -0.25,-21.19 -0.72,-33.94 -0.47,-12.75 -1.01,-23.91 -1.7,-33.51 -0.62,-9.6 -1.52,-17.5 -2.54,-23.69l-44.16 -6.12zm380.06 -5.47c25.25,0 47.13,4.2 65.64,12.64 18.47,8.44 33.65,19.42 45.42,33.07 11.77,13.66 20.47,28.11 25.97,43.47 5.54,15.39 8.26,30.14 8.26,44.23 0,16.16 -3.08,31.99 -9.34,47.53 -6.19,15.5 -15.43,29.7 -27.57,42.6 -12.13,12.86 -27.2,23.18 -45.17,30.9 -17.97,7.72 -37.96,11.52 -60.06,11.52 -31.88,0 -58.9,-6.92 -81.1,-20.68 -22.17,-13.87 -38.51,-30.97 -49.08,-51.4 -10.58,-20.39 -15.83,-40.32 -15.83,-59.73 0,-17.17 3.33,-33.87 10.07,-49.99 6.66,-16.16 16.37,-30.61 29.12,-43.36 12.75,-12.75 28,-22.71 45.79,-29.92 17.82,-7.21 37.13,-10.87 57.88,-10.87zm1.01 12.39c-18.36,0 -35.39,4.78 -51,14.38 -15.58,9.6 -27.96,23.51 -37.2,41.66 -9.16,18.15 -13.8,39.52 -13.8,64.19 0,26.59 5.03,49.01 15.07,67.34 10.03,18.33 22.82,31.88 38.54,40.75 15.76,8.8 31.95,13.22 48.72,13.22 13.58,0 26.52,-2.61 38.72,-7.82 12.21,-5.22 23.15,-12.82 32.75,-22.82 9.6,-10.03 17.13,-22.35 22.53,-37.06 5.4,-14.63 8.08,-30.97 8.08,-49.01 0,-24.63 -2.86,-44.3 -8.51,-59.01 -5.72,-14.71 -14.09,-27.57 -25.07,-38.61 -9.35,-9.35 -19.99,-16.23 -31.95,-20.65 -11.92,-4.38 -24.16,-6.56 -36.88,-6.56zm9.13 -7.28l0 1.81c11.48,0.87 23,3.51 34.67,8.08 11.59,4.56 22.46,11.74 32.6,21.37 10.11,9.67 18.22,22.64 24.41,39.05 6.12,16.34 9.24,36.01 9.24,59.01 0,15.07 -1.81,29.52 -5.4,43.25 -3.66,13.76 -9.42,26.48 -17.42,38.07 -8.04,11.59 -18.47,21.19 -31.33,28.8 -12.93,7.57 -28.36,12.32 -46.4,14.05l0 1.96c15.18,-0.65 29.56,-3.95 43.25,-9.78 13.66,-5.83 25.72,-14.13 36.37,-24.96 10.61,-10.87 18.98,-24.09 25.18,-39.77 6.16,-15.65 9.24,-33.07 9.24,-52.34 0,-20.94 -3.22,-39.52 -9.6,-55.57 -6.41,-16.08 -15.1,-29.45 -26.15,-40.14 -11.05,-10.69 -23.25,-18.76 -36.73,-24.16 -13.51,-5.47 -27.46,-8.37 -41.91,-8.73zm-17.5 1.81l0 -1.81c-16.59,0.11 -32.78,3.7 -48.58,10.69 -15.72,6.99 -29.63,16.45 -41.58,28.47 -11.95,11.95 -21.33,25.57 -28,40.86 -6.74,15.32 -10.07,31.41 -10.07,48.21 0,20.65 5.58,40.75 16.81,60.24 11.19,19.56 26.73,35.39 46.51,47.6 19.81,12.21 41.55,18.73 65.27,19.38l0 -1.96c-23,-1.99 -43.36,-9.16 -61.04,-21.55 -17.64,-12.32 -31.08,-27.6 -40.32,-45.82 -9.16,-18.29 -13.76,-37.24 -13.76,-56.8 0,-16.08 2.68,-31.55 8.01,-46.37 5.36,-14.82 13.08,-28.07 23.15,-39.74 10.07,-11.59 22.28,-21.01 36.55,-28.22 14.27,-7.24 29.99,-11.66 47.05,-13.19zm396.1 164.31l0 69.59 12.03 -4.42 0 -65.16 -12.03 0zm64.08 -5.14l-28.51 6.59c-1.52,8.62 -2.79,19.74 -3.7,33.29 -0.98,13.55 -1.38,25.61 -1.27,36.33 -13.62,5.33 -24.7,9.38 -33.33,12.24 -8.62,2.86 -18.91,5.4 -30.79,7.64 -11.92,2.25 -24.92,3.4 -39.05,3.4 -23.4,0 -43.98,-3.69 -61.76,-11.05 -17.79,-7.35 -32.42,-17.17 -44.01,-29.56 -11.56,-12.46 -20.11,-26.22 -25.68,-41.4 -5.61,-15.21 -8.4,-30.5 -8.4,-45.86 0,-18.15 3.11,-35.54 9.24,-52.05 6.19,-16.55 15.25,-31.33 27.28,-44.3 11.95,-13 26.66,-23.22 44.01,-30.61 17.35,-7.43 37.06,-11.12 58.97,-11.12 3.44,0 6.12,0.07 8.08,0.18 1.99,0.11 4.42,0.25 7.39,0.36 2.97,0.11 6.92,0.29 11.92,0.54 14.49,0.98 28.22,1.45 41.15,1.45 11.99,0 21.73,-0.36 29.23,-1.09l2.46 59.41 -2.46 0 -11.45 -39.74c-4.49,-1.2 -10.11,-2.43 -16.88,-3.62 -6.74,-1.3 -14.38,-2.39 -22.82,-3.37 -8.51,-0.91 -17.68,-1.38 -27.49,-1.38 -20.79,0 -38.8,3.33 -54.12,10.07 -15.29,6.7 -27.64,15.68 -36.91,27.02 -9.31,11.3 -16.08,23.87 -20.39,37.64 -4.27,13.73 -6.38,27.82 -6.38,42.16 0,16.26 2.97,31.62 8.98,46.08 5.94,14.45 14.45,27.28 25.43,38.43 10.94,11.12 23.76,19.85 38.32,26.05 14.56,6.27 30.07,9.38 46.4,9.38 4.24,0 8.66,-0.25 13.15,-0.72 4.49,-0.51 9.2,-1.12 13.98,-1.88 4.78,-0.76 10.25,-1.59 16.44,-2.57 2.5,-10.58 3.73,-21.73 3.73,-33.47 0,-16.27 -1.23,-29.02 -3.73,-38.25l-45.89 -6.23 0 -2.14 118.85 0 0 2.14zm-115.44 -159.96l0 -1.38c-7.97,-0.72 -15.14,-1.09 -21.55,-1.09 -19.2,0 -36.91,3.33 -53.14,9.93 -16.16,6.63 -30.17,15.98 -41.95,28 -11.81,12.1 -20.97,26.37 -27.39,42.89 -6.52,16.56 -9.75,34.23 -9.75,53.14 0,22.02 5.54,42.49 16.52,61.44 11.05,18.87 26.91,33.94 47.56,45.1 20.65,11.12 44.92,16.7 72.92,16.7 5.22,0 12.32,-0.54 21.37,-1.56l0 -1.45c-26.12,0.11 -48.43,-3.41 -67.19,-10.69 -18.73,-7.24 -33.83,-17.06 -45.32,-29.52 -11.55,-12.46 -19.85,-26.12 -25.03,-40.93 -5.14,-14.81 -7.71,-29.63 -7.71,-44.45 0,-18.29 2.93,-35.1 8.84,-50.53 5.8,-15.39 14.38,-28.76 25.68,-39.99 11.23,-11.3 25.36,-20.07 42.38,-26.26 16.99,-6.23 36.19,-9.35 57.49,-9.35l6.27 0zm274.03 -6.12c25.25,0 47.13,4.2 65.64,12.64 18.47,8.44 33.65,19.42 45.42,33.07 11.77,13.66 20.47,28.11 25.97,43.47 5.54,15.39 8.26,30.14 8.26,44.23 0,16.16 -3.08,31.99 -9.35,47.53 -6.19,15.5 -15.43,29.7 -27.57,42.6 -12.13,12.86 -27.2,23.18 -45.17,30.9 -17.97,7.72 -37.96,11.52 -60.06,11.52 -31.88,0 -58.9,-6.92 -81.1,-20.68 -22.17,-13.87 -38.51,-30.97 -49.08,-51.4 -10.58,-20.39 -15.83,-40.32 -15.83,-59.73 0,-17.17 3.33,-33.87 10.07,-49.99 6.67,-16.16 16.37,-30.61 29.12,-43.36 12.75,-12.75 28,-22.71 45.79,-29.92 17.82,-7.21 37.13,-10.87 57.88,-10.87zm1.01 12.39c-18.36,0 -35.39,4.78 -51,14.38 -15.58,9.6 -27.96,23.51 -37.2,41.66 -9.16,18.15 -13.8,39.52 -13.8,64.19 0,26.59 5.04,49.01 15.07,67.34 10.03,18.33 22.82,31.88 38.54,40.75 15.76,8.8 31.95,13.22 48.72,13.22 13.58,0 26.52,-2.61 38.72,-7.82 12.21,-5.22 23.15,-12.82 32.75,-22.82 9.6,-10.03 17.13,-22.35 22.53,-37.06 5.4,-14.63 8.08,-30.97 8.08,-49.01 0,-24.63 -2.86,-44.3 -8.51,-59.01 -5.72,-14.71 -14.09,-27.57 -25.07,-38.61 -9.35,-9.35 -20,-16.23 -31.95,-20.65 -11.92,-4.38 -24.16,-6.56 -36.88,-6.56zm9.13 -7.28l0 1.81c11.48,0.87 23,3.51 34.67,8.08 11.59,4.56 22.46,11.74 32.6,21.37 10.11,9.67 18.22,22.64 24.41,39.05 6.12,16.34 9.24,36.01 9.24,59.01 0,15.07 -1.81,29.52 -5.4,43.25 -3.66,13.76 -9.42,26.48 -17.42,38.07 -8.04,11.59 -18.47,21.19 -31.33,28.8 -12.93,7.57 -28.36,12.32 -46.4,14.05l0 1.96c15.18,-0.65 29.56,-3.95 43.25,-9.78 13.66,-5.83 25.72,-14.13 36.37,-24.96 10.61,-10.87 18.98,-24.09 25.18,-39.77 6.16,-15.65 9.24,-33.07 9.24,-52.34 0,-20.94 -3.22,-39.52 -9.6,-55.57 -6.41,-16.08 -15.11,-29.45 -26.15,-40.14 -11.05,-10.69 -23.25,-18.76 -36.73,-24.16 -13.51,-5.47 -27.46,-8.37 -41.91,-8.73zm-17.49 1.81l0 -1.81c-16.59,0.11 -32.78,3.7 -48.58,10.69 -15.72,6.99 -29.63,16.45 -41.58,28.47 -11.95,11.95 -21.34,25.57 -28,40.86 -6.74,15.32 -10.07,31.41 -10.07,48.21 0,20.65 5.58,40.75 16.81,60.24 11.19,19.56 26.73,35.39 46.51,47.6 19.81,12.21 41.55,18.73 65.28,19.38l0 -1.96c-23,-1.99 -43.36,-9.16 -61.04,-21.55 -17.64,-12.32 -31.08,-27.6 -40.32,-45.82 -9.16,-18.29 -13.76,-37.24 -13.76,-56.8 0,-16.08 2.68,-31.55 8.01,-46.37 5.36,-14.82 13.08,-28.07 23.15,-39.74 10.07,-11.59 22.28,-21.01 36.55,-28.22 14.27,-7.24 29.99,-11.66 47.05,-13.19z"/>
  </g>
 </g>
</svg>
