<?xml version="1.0" encoding="UTF-8"?>
<!DOCTYPE svg PUBLIC "-//W3C//DTD SVG 1.1//EN" "http://www.w3.org/Graphics/SVG/1.1/DTD/svg11.dtd">
<!-- Creator: CorelDRAW 2019 (64-Bit) -->
<svg xmlns="http://www.w3.org/2000/svg" xml:space="preserve" width="2.0528mm" height="1.7042mm" version="1.1" style="shape-rendering:geometricPrecision; text-rendering:geometricPrecision; image-rendering:optimizeQuality; fill-rule:evenodd; clip-rule:evenodd"
viewBox="0 0 0.88 0.73"
 xmlns:xlink="http://www.w3.org/1999/xlink">
 <defs>
  <style type="text/css">
   <![CDATA[
    .fil3 {fill:#00D5FF}
    .fil1 {fill:white}
    .fil0 {fill:url(#id4)}
    .fil2 {fill:url(#id5)}
   ]]>
  </style>
      <clipPath id="id0">
       <rect x="-0" y="0" width="0.58" height="0.42"/>
      </clipPath>
      <clipPath id="id1">
       <rect x="0.03" y="0.14" width="0.34" height="0.25"/>
      </clipPath>
    <mask id="id2">
  <linearGradient id="id3" gradientUnits="userSpaceOnUse" x1="1.39" y1="0.76" x2="0.42" y2="0.37">
   <stop offset="0" style="stop-opacity:1; stop-color:white"/>
   <stop offset="1" style="stop-opacity:0; stop-color:white"/>
  </linearGradient>
     <rect style="fill:url(#id3)" x="0.23" y="0.18" width="0.65" height="0.55"/>
    </mask>
  <linearGradient id="id4" gradientUnits="userSpaceOnUse" x1="0.48" y1="0.17" x2="0.51" y2="0.65">
   <stop offset="0" style="stop-opacity:1; stop-color:#FE521D"/>
   <stop offset="1" style="stop-opacity:1; stop-color:#FFD349"/>
  </linearGradient>
  <linearGradient id="id5" gradientUnits="userSpaceOnUse" x1="0.6" y1="0.49" x2="0.5" y2="0.36">
   <stop offset="0" style="stop-opacity:1; stop-color:#FBFF00"/>
   <stop offset="1" style="stop-opacity:1; stop-color:#FE4306"/>
  </linearGradient>
 </defs>
 <g id="Layer_x0020_1">
  <metadata id="CorelCorpID_0Corel-Layer"/>
  <g id="_2229636692640">
   <g>
    <g>
     <g>
      <path class="fil0" d="M0.71 0.73l-0.48 -0.26c0,-0 0,-0 0,-0l-0.01 -0 -0 0 -0.05 -0.03 0 -0c0,-0 0,-0 0,-0.01 0,-0 0,-0 0,-0 0,-0 0,-0 0,-0 0,-0 0,-0 0,-0 0,-0 0,-0 0,-0 -0,-0 -0,-0 -0.01,0 -0,0 -0,0 -0.01,0.01 -0,0 -0,0 -0,0l0 -0.01c-0,-0 -0,0 -0.01,0l0 -0c-0,0 -0,0 -0,0l-0 0 0 0c-0,0 0,0 0,0l0 -0 0 0c0,0 0,0 0,0l-0 0 -0.05 -0.03c0,0 0,0 0.01,0l0 -0c-0,-0 -0,-0.01 -0.01,-0.01 -0,0 -0,0.01 -0,0.01 0,0 0,0 0,0l-0 0 -0.01 -0 0.02 -0.03 0.01 -0c0,-0 0.01,-0 0.01,-0 -0,-0 -0,-0 -0.01,-0l0 -0.01 0 0c0,-0 0,-0 -0,-0.01l0 -0 0 -0 0.02 -0 0 0 0 -0 -0 -0 0 -0c0,0 0,0 0,0.01 0,0 0,0 0.01,0 0,0 0,0 0.01,0l0 0.01c0.01,-0 0.01,-0 0.01,-0.01 0.01,-0 0,-0 0.01,-0.01 0,-0 0,-0.01 -0,-0.01l0 -0 0 -0 0 0.01 -0 -0c0,0 0,0.01 0.01,0.01l-0 0 0 0c0,0 0,0 0,0 0,-0 0.01,-0.01 0.01,-0.01 0,-0 0,-0 0,-0l-0 -0 0 -0c0,-0 0.01,-0.01 0.01,-0.01 0,0 0,0 0,0.01 0,0 0,0 0,0.01 0,-0 0,-0.02 0.01,-0.03 0,-0 0,-0 0,-0.01 -0,-0 -0,-0 -0,-0 -0,0 0,0 -0,0 -0,-0 -0,-0 -0,-0 -0,0 -0,0 -0,0l-0.02 0c0,-0 0,-0.01 0,-0.01l-0 -0 0 0c0,-0 -0,-0 -0,-0.01 0,-0 0,-0 0,-0.01l0 0c0,0 0,0 0,0l0.02 0.02c0,0 0,0 0,0 0,0 0,0 0,-0 0,0 0.01,0.01 0.01,0.01l0 -0 0.01 0c0,0 0,0 0,0l0 -0c-0,0.01 -0.01,0.03 -0.01,0.03l0.02 -0c0.01,-0 0.01,0 0,-0.01l-0.01 -0.02c-0,-0 -0,-0 -0,-0l0.02 0c-0,-0 -0,-0 -0,-0 -0,-0.01 -0.01,-0.01 -0.01,-0.02 0,-0 0,-0 0,-0 -0,0 -0.01,-0 -0.01,-0l0 -0.01c0,0 0,0 0,0l0.01 0 -0 -0.01 0.01 -0c-0,-0 -0,-0.01 -0.01,-0.01l-0 -0 0 -0c0,0 0,0 0,0l-0 -0c0,0 0.01,0.01 0.01,0.01l0.01 -0.01c0,-0.01 0,-0 -0,-0.01l-0.01 -0 -0 -0 0.01 -0.01c0,0 0,0 0,-0l0 -0 -0 0c0,-0 -0,-0 -0,-0.01 0,-0 -0,-0.01 -0,-0.01l-0.01 0c-0,-0 -0,-0 -0,-0 0,0 -0,0.01 -0,0.01 0,-0 0,-0 0.01,-0l0.01 0.01 0 0 -0 0 -0.01 0 -0 -0 -0 0 -0 0 -0 0c-0,-0 -0,-0 -0,-0l-0 0 -0 -0 -0 0 -0 0 -0 -0c0,-0 0,-0 0,-0.01 0,-0 0,-0 -0,-0 -0,0 -0,0 -0,0l0 -0.01 -0 -0 0 -0c0,-0 0,-0 0,-0 0,-0 0,-0 0,-0.01 -0,-0 -0,-0 -0,-0.01 0,-0 0,-0 0,-0 0,-0 0,-0.01 0.01,-0.01l0.01 -0.01c0.01,-0 0,0 0.01,-0l0.01 -0.01 -0 0c0,0 0,-0 0.01,-0l-0.01 0c0,0 0,0.01 0.01,0.01l0 -0.01c0,-0 0,-0 0,-0.01l0.01 -0 -0 -0c0,0 0,-0 0,-0 0,-0 -0,-0 -0,0l0 0 -0 -0 0 -0c0,-0 0,-0 0.01,-0 0.01,-0 0.03,-0.03 0.04,-0.03l0 -0 0.5 0.28 -0.17 0.31zm-0.48 -0.55l0 -0.01 0 0c-0,0 -0,0 -0.01,0.01zm0.01 -0.01l-0 0 -0 0 0.01 -0.02 0 -0 -0 -0 0 -0c0,-0 0,-0 0,-0.01 0,0 0,0 0.01,-0l0 -0c0,0 0,0 0,0 0,-0 0,-0 0,-0 0,-0 0.01,-0.01 0.01,-0 0,0 -0,0 -0,0.01l-0 0 -0.01 0.01 -0 -0c0,0 0,0 0,0.01 0,-0 0,-0 0,-0l0 0 0 0 -0.01 0.01c-0,0 -0,0 -0.01,0.01l-0 0 0 0 -0.01 0.01 -0 0zm0.02 -0.06l0.01 -0.01 0 0 -0 0c-0,0 -0,0.01 -0.01,0.01zm0.02 -0.02l-0 -0 0 0 -0 0zm-0 -0c-0,0 -0.01,0 -0.01,0.01l0.01 -0.01 0.01 0 -0 0c-0,0 -0,0 -0,0 0,0 0,0 0,0zm0.01 0c0,0 0,0 0,0 0,-0 0,-0 0,-0l0.02 0.01 0 0.01 0 -0 0 0c-0,0 -0,0.01 -0.01,0.01 -0.01,0.01 -0,-0 -0.02,0.02l-0 0 -0.01 -0.01 -0 -0 0 -0 -0 0 -0 -0 0 -0c0,-0 0.01,-0 0.01,-0.01 -0,-0 -0.01,0 -0.01,0l-0.01 0.01 -0 -0 0 0c-0,0 -0.01,0 -0.01,0.01 0,-0 -0,-0 -0,-0.01l-0 0 0 -0 0.01 -0.01c0,-0 0.01,-0.01 0,-0.01 -0,-0 -0,0 -0.01,0 0,-0.01 0,-0.01 0,-0.01 0,-0 0,-0.01 0.01,-0.01 0,-0 0,-0 0,-0zm0.05 0.03l0 0 -0 0 -0 -0c-0,0 -0,0 -0,0l-0 0c-0.01,0 -0.01,0.01 -0.01,0.01 -0,0 -0.01,0.01 -0.01,0.01 0,-0 0.01,-0.01 0.01,-0.01l0 0c0,-0 0,-0 0.01,-0.01l0 -0zm-0.11 0.12c0,-0 0,-0 0.01,-0.01 -0,0 -0,0 -0,0 -0,0 0,0 -0,0zm0.02 -0.11c0,-0 0,-0 0,-0 -0,0 -0,0 -0,0zm0.02 -0.01l0 0c0,0 -0,-0 -0,-0zm-0.01 0.01c0,-0 0,-0 0.01,-0.01 0,-0 0,-0.01 0.01,-0.01 -0,0 -0,0 -0,0 -0,0 -0,0 -0,0 -0,0 -0,0.01 -0.01,0.01zm-0.11 0.29c0,0 0.01,0 0.01,-0 0,-0 0.01,-0.01 -0,-0.01 -0,0 -0,0 -0,0.01zm-0 -0.06c0,-0 0,-0 0.01,-0 0,-0 0,-0 0,-0.01 -0,0 -0,0 -0.01,0 -0,0 -0,0 -0,0 -0,0 -0,0 -0,0.01zm0.01 0.02l0 0c0,-0 0,-0 0,-0l-0 0zm0.13 -0.27c0,-0 0,-0 0,-0 -0,0 -0,0 -0,0zm-0.06 0.2c0,0 -0,0 0,-0 0,-0 0,-0 -0,-0 -0,0 -0,0 -0,0zm-0.04 0.1c0,0 0,0 0,0 -0,-0 0,-0 -0,-0 -0,-0 -0,-0 -0,0zm-0.05 -0.01c0,-0 -0,-0 -0,-0.01 0,0 0,0 0,0l-0 -0.01 -0 0c-0,-0 -0,-0 -0,-0 -0,0.01 0,0.01 -0.01,0.01 0,0 0.01,0 0.01,0 0,0 0,0 0,0zm0.01 -0.03c0,-0 0,-0 0,-0 -0,-0 -0,-0 -0.01,-0 -0,0 -0,0 -0,0.01l-0 0 -0 -0c-0,-0 -0,-0 -0,-0.01 -0,0 -0,0.01 -0.01,0.01 -0,0 -0,0.01 -0,0.01l0 -0c-0,0 -0,0 -0,0.01 0,0 0.01,-0 0.01,-0 -0,-0 -0,-0 -0,-0l0.01 -0 0 0c0,0 0,0 0.01,0l0 -0.01zm0 -0c0,0 0.01,0 0.01,0l0 -0c-0,-0 -0,-0 -0,-0l-0 -0.01c-0,0 -0,0.01 -0,0.01zm0.04 0.07c-0,0 -0,0 -0.01,0.01 0,0 0.01,0 0.01,0 -0,-0 -0,-0.01 -0,-0.01zm-0.08 -0.05c0.01,-0.01 0.01,-0.01 -0,-0.01 0,0 0,0.01 0,0.01zm0.09 0.06l0 -0.01c-0,-0 -0.01,-0 -0.01,0 0,0 0,0.01 0,0.01zm-0.08 -0.09c-0,-0 -0,-0 -0,0 -0,0 -0,-0 -0,0 0.01,0 0.01,0.01 0.01,0 0,-0 0,-0 0,-0zm0.18 -0.04c0,-0 0.01,-0 0.01,-0 -0,-0 -0,-0 -0.01,-0 -0,0 -0,0 -0,0 -0,0 -0,0 -0,0zm-0.01 -0.01c0,-0 0,-0.01 0,-0.01 -0,0 -0.01,0 -0.01,0 0,0 0,0 0,0zm-0.16 0.08c0,0 0,0 0,0 0,0 0,0 0,0 0,-0 0,-0 0,-0 0,0 0,0 0,0l0 -0.01c-0,-0 -0,0 -0.01,0 -0,0 -0,0 -0.01,0 -0,-0 -0,0 -0,0 -0,0 -0,0 -0,0 0,-0 0,-0 0.01,-0zm0.15 -0.08c0,-0 -0,-0 -0,-0.01l-0 -0c-0,0 -0,0 -0.01,0.01 0,0 0.01,0 0.01,0zm0.03 -0.07c0,-0 0.01,-0 0.01,-0 -0,-0 -0,-0 -0,-0 -0,0 -0,0.01 -0,0.01zm-0 0.02c0,-0 0,-0 0,-0.01 -0,-0 -0.01,0 -0.01,0 0,0 0,0 0,0 0,0 0,0 0,0zm-0.12 0.17c-0,-0 -0,-0 -0,-0 -0,0 -0,0 -0,0.01 0,0 0.01,-0 0.01,-0zm0.06 -0.14l0 -0c-0,-0 -0,-0 -0,-0 -0,0 -0,0 -0,0.01 0,0 0,-0 0.01,-0zm-0.13 0.07c0,0 0,-0 0,-0 0,-0 0,-0 0,-0 -0,-0 -0,-0 -0,-0 -0,0 -0,0 -0,0zm0.17 -0.02c0,0 0,0 0,-0 -0,-0 -0,-0 -0,-0 0,0 0,0 0,0zm-0.18 0.07l0 -0c-0,-0 -0,-0 -0.01,-0 0,0 0,0 0,0zm0.17 -0.08c0,0 0,-0 0,-0 -0,-0 -0,-0 -0,-0 -0,0 -0,0 0,0zm-0.06 0.06l-0.01 0c-0,0 -0,-0 -0,0 0,0 0.01,0.01 0.01,0.01l0 -0.01zm0.02 -0.04c-0,-0 -0,-0 -0,-0 -0,-0 -0,0 -0,-0 -0,0 0,0 0,0.01 0,0 0,0 0,0.01 0,-0 0,-0.01 0,-0.01zm-0.01 -0.09l0 0 0 0 -0 -0 -0.01 0.02 -0 0 -0 0 -0 0 -0.01 -0c-0,0 -0.01,0 -0.01,-0 0,-0.01 0.01,-0.01 0.02,-0.01 0.01,-0.01 0.01,-0 0.02,-0.01l0 -0zm0 -0.02l-0 0 -0 -0c-0,-0 -0,-0 -0,-0l-0 -0 0 -0c0,-0 0,-0 0,-0l0 0zm-0.01 0.01c0,0 0,0 0,0 0,-0 0,-0 0,-0l0 0c-0,0 -0,0 -0,0.01 -0,0 -0,0 -0,0.01 -0,0.01 -0.01,0.01 -0.02,0.01 0,-0.01 0.01,-0.01 0.01,-0.02 0,-0 0,-0.01 0.01,-0.01zm-0 0.03l0 -0 0.02 -0 -0 0.01 -0 0 -0 0 0 -0 -0.02 -0 0 -0zm0.01 -0.02l-0 -0 0 -0 -0 0zm-0.04 0.1c-0,0 -0,0.01 -0,0.01 0,0 0,-0 0,-0 0,-0 0,-0 0,-0 0,-0 0,-0 0.01,-0 -0,-0 -0.01,-0 -0.01,-0zm0.01 0.01l-0.01 0c0,0 0,0.01 0.01,0.01 0,-0 0,-0.01 0,-0.01zm-0.1 0.03c-0,0 -0,0.01 -0.01,0.01 0,0 0.01,-0 0.01,-0 0,-0 -0,-0.01 -0,-0.01zm0.15 -0.08l0 0c0,0 0,0 0,0 0,0 0,0 0,-0 0,-0 0,-0 0,-0 -0,-0 -0.01,-0 -0.01,-0 -0,-0 -0,-0 -0,-0zm-0.04 -0.08l0 -0c0,-0 0,-0 0,-0l0 -0c0,-0 0,-0 0,-0 0,0 -0,0.01 -0.01,0.01 0,-0 0,-0 0,-0zm0.01 0.18c0,0 0,0 0.01,0 0,-0 -0,-0 -0,-0l-0 -0c-0,-0 -0,-0 -0,0 -0,0 -0,0 -0,0.01zm0.03 -0.12c-0,0 -0,0 -0,0l-0 0.01c-0,-0 -0,-0 -0.01,-0 0,0 0,0.01 0,0.01 0,-0 0,-0 0,-0.01l-0 0c0,-0 0,-0 0,-0 0,-0 0,-0 0,-0 -0,-0 -0,-0 -0.01,-0zm-0.09 0.06c-0,0 -0,0.01 -0,0.01l-0 0c0,0.01 0,0 0.01,0 0,-0 0,-0 0,-0.01l-0.01 0c0,-0.01 0.01,-0 0,-0.01 -0,-0 -0,-0 -0,-0zm0.06 -0.12c-0,0 0,0 0,0 -0,0 -0,0 -0,0l-0 0c0,-0 0,-0 0,-0.01zm-0.02 0.14c-0,-0 -0,-0 -0,-0 -0,-0 -0,-0 -0,0 0,0 0,0.01 0,0.01 0,-0 0,-0 0,-0 0,-0 0,-0 0,-0zm0.05 -0.04l0 0 -0 0c-0,0 -0,0 -0,0 -0,0 -0.01,0 -0.01,0 0,0 0.02,0.01 0.02,0.02l0.01 -0.02c-0,-0 -0.01,-0 -0.01,-0 0,-0 -0,-0 -0,-0zm-0.07 0.07c-0,0 -0,0 -0,0 0,0 0,0 0,0 0,-0 0,-0 0,-0.01l-0 -0 0 -0 0 -0 0 0 -0 -0 0 -0 -0 0 -0 -0c0,-0 0,-0 0,-0 -0,0 -0,0 -0,-0l0 0 -0 -0c-0,-0 -0,-0 -0,-0l-0 0 -0 0c-0,0 -0,0 -0.01,0l-0 0c-0,0 -0,0 -0.01,0l-0 -0 -0 -0c0,-0 0.01,-0.01 0.01,-0.01 -0,-0 -0.01,0 -0.01,0 0,-0 0,-0 0,-0 -0,-0 -0.01,0 -0.01,0 0,0 -0,0 0,0l-0 0c-0,0 -0,-0 -0,0 0,0 0,0 0,0l0 0.01 -0 0.01c-0,0 -0,0 -0,0 0,0 0,0 0,0l-0 0 -0 -0c-0,0 -0,0.01 -0,0.01 0,0 0,-0 0,-0l-0 0 0.03 -0c-0,-0 -0,-0.01 -0.01,-0.01 0,-0 0,-0 0,-0l0 0 0 -0 0.01 0.01zm0.04 -0.03c-0,-0 -0,-0 -0,0l-0 0c0,0 0,0 0.01,0l-0 -0 0 0c0,-0 0,-0 0,-0 0,-0 0,-0 -0,-0 -0,0 -0,0 -0,0zm-0.02 0.03c0,0 0,0 0,0 0,-0 0,-0 0,-0 -0,-0 -0,0 -0.01,0zm-0.01 0.04c-0,-0 -0.01,0 -0.01,0l0 0c-0,-0 -0.01,-0 -0.01,-0l-0 0.01c0,0 0,0 0,0 0,-0 0.01,-0 0.01,-0l-0 -0c0,-0 0,-0 0,-0zm0.04 -0.06c-0,0 -0,0 -0,0.01 0,0 0,0 0,-0 -0,-0 0,-0 -0,-0l-0 -0zm-0.04 -0.01c0,0 0,0 0,0 0,-0 0,-0 0,-0 -0,-0 -0,-0 -0,0zm0.01 0.03c-0,0 -0,0 -0,0 0,0 0,0 0,0 0,-0 0,-0 -0,-0zm0.17 -0.08c0,0 0.02,0.02 0.02,0.02l0.01 -0.02c0,-0 0,-0 0,-0 0,-0 0,-0.01 0,-0.01 -0,0 -0.01,0 -0.01,0 -0,0 -0.01,0 -0.01,0 -0.01,0 -0.01,0.01 -0.02,0.01zm0.02 -0.07c0,0 0,0 0,0l0.02 0.01c0,0 0,0 0.01,0 0,-0 0,-0.01 0,-0.02 0,-0 0,-0 0,-0 0,-0 0,-0 0,-0 -0,0 -0.01,0 -0.01,0 -0,0 -0,0 -0.01,0 -0,0 -0.01,0 -0.02,0zm-0.04 0.03c0.01,0 0.01,0 0.02,0 -0,-0 -0.01,-0.01 -0.01,-0.01 -0,0 -0,0 -0,0.01 -0,0 -0,0 -0,0l0 0 -0 0zm0.07 -0.01c0,0 0.01,0.01 0.01,0.01 0,-0 0,-0.01 0,-0.01l0 -0c-0,0 -0.01,0 -0.02,0zm-0.22 0.18c0,0 0.01,0.01 0.01,0.01 0,-0 -0,-0.01 -0,-0.01 -0,0 -0,0 -0,0 -0,0 -0,0 -0,0zm-0 -0.02l0 0c0,0 0,0.01 0,0.01l0 -0.01 0.01 -0c-0,-0 -0,-0 -0.01,-0l0 -0 -0 0 -0 -0 -0 0 -0.01 0 0 -0c-0,0 -0,0 -0,0 -0,0 -0,0 -0,0 0,0 0.01,0 0.01,0.01l0 -0.01 0 0 0 0 -0 0zm0 -0.01c0,-0 0,-0 0,-0l0 0 0 -0c0,-0 0,-0 0,-0l0 -0 -0 -0c-0,-0 -0,-0 0,-0l-0 -0 -0 0c-0,-0 -0,-0 -0.01,-0 0,0 0,0.01 0.01,0.01zm0.11 -0.02c0,0 0.01,0.01 0.01,0.01 0,-0 0,-0.01 0,-0.01 -0,0 -0.01,0 -0.01,0zm-0.02 0.01c0,0 0.01,0 0.01,0 -0,-0 -0.01,-0.01 -0.01,-0.01 -0,0 -0,0 -0,0 -0,0 -0,0 -0,0zm-0.08 -0.06l0 0 0 -0 0 0c0,0 0,0 0,0l0.01 0.01 0.01 -0.03c-0,0 -0,0 -0,0 -0,0 -0.01,0.01 -0.02,0.01 -0,-0 -0.01,-0 -0.01,-0 0,0 0,0 0.01,0.01zm-0.03 0.09c0,0 0,0 0.01,0.01 0,-0 0,-0 0,-0.01 -0,0 -0,0 -0.01,0zm0.16 0.01c0,0 0.01,-0 0.01,-0l0 -0c-0,-0 -0,-0 -0.01,-0 -0,0 -0,0 -0,0.01zm-0.15 -0.03c0,0 0,0 0,0 0,-0 0,-0 0,-0.01 -0,0 -0,0 -0.01,0zm0.11 -0.18c-0,0 -0,0 -0.01,0 -0,-0 0,-0 -0,-0l-0.01 0.01 0.01 0c-0,0 -0,0 -0,0 0.01,-0 0.01,-0 0.02,0 -0,-0 -0,-0.01 -0,-0.01 -0,-0 -0,-0 -0,-0zm-0.02 -0.08l-0 -0 0.01 -0 0 -0 -0 0 -0 0zm-0.01 -0.01l-0 0 -0 -0 0 -0zm-0 0l0 0 -0 0 0 0 0 0 -0.01 0 0 -0 0 -0 -0 -0c0,-0 0,-0 0,-0zm0.01 0.01l0 -0 0 -0 -0 0zm-0.08 0.23l0 -0 0 0 0 0 -0 0 -0 0zm0.03 -0.04c-0,0 -0,0 -0,0l-0.01 0c-0,-0 -0,-0.01 -0,-0.01 -0,0 -0.01,0.01 -0.01,0.01 0,0 0.01,-0 0.01,-0l-0 0 0 0 -0 0c-0,0 -0,0 -0,0l0 0c-0,0 -0,0 -0,0 0,-0 0,-0 0,-0l0.01 0c0,-0 0,-0 0,-0l0 0c0,-0 -0,-0.01 0,-0.01zm0.09 -0.07c-0,-0 -0,-0 -0,-0l0 0c-0,-0 -0,-0 -0,-0.01l-0 0c-0,0 -0.01,0.01 -0.01,0.01 0,0 0.01,-0 0.01,-0zm-0.02 -0.01c-0.01,0 -0.01,-0 -0.01,0.01 0,-0 0.01,-0.01 0.01,-0.01zm-0 -0.14l-0.01 0c0,0 0,0.01 0,0.01 0,-0 0.01,-0.01 0.01,-0.01zm-0.11 0.26l-0 0 -0 -0 0 0zm0.09 -0.16c0,-0 0,-0 0,-0 0,-0 0,-0 0,-0.01 -0,0 -0,0 -0.01,0 -0,-0 -0,-0 -0,-0l-0.01 0c0,0 0,0 0.01,0 0,0 0,0 0.01,0l-0 -0zm0 0.03c-0,0 -0,0 -0,0.01 0,0 0.01,0 0.01,0 -0,-0 -0,-0.01 -0.01,-0.01zm-0.16 0.12c-0,0 -0.01,0 -0.01,0 0,0 0,0 0,0.01 0,-0 0,0 0,-0l0 -0c0.01,-0 0.01,-0 0.01,-0.01 0,-0 0,-0 0,-0 -0.01,-0 -0,0 -0.01,0 -0,0 -0,0 -0,0l-0 0 0 -0zm0.19 -0.13l-0 0c0,0 0,0.01 0,0.01 0,-0 0,-0 0,-0.01z"/>
      <g>
       <path class="fil1" d="M0.7 0.71l-0.02 -0.01 0.01 -0.02 0.02 0.01 -0.01 0.02zm-0.51 -0.3c0,0 0,0 0,0 -0,-0 0,-0 -0,-0 -0,-0 -0,-0 -0,0zm-0.03 -0.01c0,0 0,0 0,0 0,0 0,0 0,0 0,-0 0,-0 0,-0 0,0 0,0 0,0l0 -0 0 0 -0.01 0.02 -0.01 -0.01c-0,-0 -0,-0 -0,-0 0,0 0,0 0,0l-0 -0.01 -0 0c-0,-0 -0,-0 -0,-0 -0,0 -0,0.01 -0,0.01l-0.01 -0 -0 -0 -0 0 -0 -0 0 -0c0,-0 0,-0 0,-0l0.01 -0.01 0 0c-0,0 -0,0 -0,0l0 -0c-0,0 -0,0 -0,0.01 0,0 0.01,-0 0.01,-0 -0,-0 -0,-0 -0,-0l0 -0 0.02 0.01 -0 0c-0,0 -0,0 -0.01,0 -0,-0 -0,0 -0,0 -0,0 -0,0 -0,0 0,-0 0,-0 0.01,-0zm0.04 0.03c0,0 0,0 0.01,0.01 0,-0 0,-0 0,-0.01 -0,0 -0,0 -0.01,0zm0.46 0.26l-0.02 -0.01 0.01 -0.02 0.02 0.01 -0.01 0.02zm-0.04 -0.02l-0.03 -0.01 0.01 -0.02 0.03 0.01 -0.01 0.02zm-0.04 -0.02l-0.03 -0.01 0.01 -0.02 0.03 0.01 -0.01 0.02zm-0.04 -0.02l-0.03 -0.01 0.01 -0.02 0.03 0.01 -0.01 0.02zm-0.04 -0.02l-0.03 -0.02 0.01 -0.02 0.03 0.02 -0.01 0.02zm-0.04 -0.02l-0.03 -0.02 0.01 -0.02 0.03 0.02 -0.01 0.02zm-0.05 -0.03l-0.03 -0.02 0.01 -0.02 0.03 0.02 -0.01 0.02zm-0.05 -0.03l-0.03 -0.02 0.01 -0.02 0.03 0.02 -0.01 0.02zm-0.05 -0.03l-0.03 -0.02 0.01 -0.02 0.03 0.02 -0.01 0.02zm-0.05 -0.03l-0.03 -0.02 0.01 -0.02c0,0 0,0 0,0l-0 -0 0.03 0.01 -0.01 0.02zm-0.05 -0.03l-0.03 -0.02 0 -0c0,-0 0,-0 0,-0 0,-0 0,-0 0,-0 -0,-0 -0,-0 -0.01,0l-0 0 -0 -0 0.01 -0.02 0.03 0.02 -0 0 0 0c-0,-0 -0.01,-0 -0.01,-0l-0 0.01c0,0 0,0 0,0 0,-0 0.01,-0 0.01,-0l-0 0 -0 0 -0 0c-0,0 -0,0 -0,0.01l0 0 -0 0.01z"/>
       <path class="fil1" d="M0.85 0.44l-0.02 -0.01 0.01 -0.02 0.02 0.01 -0.01 0.02zm-0.56 -0.33c0,-0 0,-0 0,-0 -0,0 -0,0 -0,0zm0.02 0.01l-0.01 0c0,0 0,0.01 0,0.01 0,-0 0.01,-0.01 0.01,-0.01zm0.51 0.29l-0.02 -0.01 0.01 -0.02 0.02 0.01 -0.01 0.02zm-0.04 -0.02l-0.03 -0.01 0.01 -0.02 0.03 0.01 -0.01 0.02zm-0.04 -0.02l-0.03 -0.01 0.01 -0.02 0.03 0.01 -0.01 0.02zm-0.04 -0.02l-0.03 -0.01 0.01 -0.02 0.03 0.01 -0.01 0.02zm-0.04 -0.02l-0.03 -0.02 0.01 -0.02 0.03 0.02 -0.01 0.02zm-0.04 -0.02l-0.03 -0.02 0.01 -0.02 0.03 0.02 -0.01 0.02zm-0.05 -0.03l-0.03 -0.02 0.01 -0.02 0.03 0.02 -0.01 0.02zm-0.05 -0.03l-0.03 -0.02 0.01 -0.02 0.03 0.02 -0.01 0.02zm-0.05 -0.03l-0.03 -0.02 0.01 -0.02 0.03 0.02 -0.01 0.02zm-0.05 -0.03l-0.03 -0.02 0.01 -0.02 0.03 0.02 -0.01 0.02zm-0.05 -0.03l-0.01 -0.01 0.01 -0.01 0.01 0 -0.01 0.02zm-0.06 -0.03l-0.01 -0.01 0 -0c0,-0 0.01,-0 0.01,-0.01 -0,-0 -0.01,0 -0.01,0l-0 0 -0 -0 0 -0c0,-0 0.01,-0.01 0,-0.01 -0,-0 -0,0 -0.01,0l-0 -0 0.01 -0.02 0.03 0.02 -0 0c-0,0.01 -0,-0 -0.01,0.01z"/>
      </g>
     </g>
     <g style="clip-path:url(#id0)">
      <image id="pngwing.com_x0020__x0028_3_x0029_.png" x="-0" y="0" width="0.58" height="0.42" xlink:href="video-editor_Images\video-editor_ImgID1.png"/>
     </g>
     <g style="clip-path:url(#id1)">
      <image id="pngwing.com_x0020__x0028_3_x0029_.png_0" x="0.03" y="0.14" width="0.34" height="0.25" xlink:href="video-editor_Images\video-editor_ImgID2.png"/>
     </g>
    </g>
    <polygon class="fil1" points="0.52,0.29 0.6,0.48 0.4,0.49 "/>
    <polygon class="fil2" points="0.54,0.29 0.62,0.47 0.42,0.48 "/>
   </g>
   <polygon class="fil3" style="mask:url(#id2)" points="0.88,0.42 0.71,0.73 0.23,0.47 0.42,0.18 "/>
  </g>
 </g>
</svg>
