<?xml version="1.0" encoding="UTF-8"?>
<!DOCTYPE svg PUBLIC "-//W3C//DTD SVG 1.1//EN" "http://www.w3.org/Graphics/SVG/1.1/DTD/svg11.dtd">
<!-- Creator: CorelDRAW 2019 (64-Bit) -->
<svg xmlns="http://www.w3.org/2000/svg" xml:space="preserve" width="46.5967mm" height="45.3437mm" version="1.1" style="shape-rendering:geometricPrecision; text-rendering:geometricPrecision; image-rendering:optimizeQuality; fill-rule:evenodd; clip-rule:evenodd"
viewBox="0 0 5061.69 4925.58"
 xmlns:xlink="http://www.w3.org/1999/xlink">
 <defs>
  <style type="text/css">
   <![CDATA[
    .fil1 {fill:white;fill-rule:nonzero}
    .fil0 {fill:url(#id0)}
   ]]>
  </style>
  <linearGradient id="id0" gradientUnits="userSpaceOnUse" x1="47.48" y1="2492.95" x2="5007.32" y2="2492.95">
   <stop offset="0" style="stop-opacity:1; stop-color:yellow"/>
   <stop offset="1" style="stop-opacity:1; stop-color:#0062DA"/>
  </linearGradient>
 </defs>
 <g id="Layer_x0020_1">
  <metadata id="CorelCorpID_0Corel-Layer"/>
  <path class="fil0" d="M1585.15 4701.15c-491.2,-500.13 -982.4,-1000.28 -1473.6,-1500.41 -160,-150.36 -129.91,-188.78 -22.51,-401.86 506.47,-829.88 1056.47,-1634.74 1519.41,-2489.65 250.6,-462.79 258.43,-376.78 516.48,63.2 134.88,229.96 269.89,459.84 404.95,689.7 149.95,-247.84 295.63,-498.14 433.58,-752.9 250.6,-462.79 258.43,-376.78 516.48,63.2 488.57,832.99 978.75,1665.08 1468.12,2497.61 136.33,213.01 168.94,225.41 -8.29,390.36 -501.86,489.69 -1003.73,979.4 -1505.59,1469.09 -292.93,285.83 -207.92,244.29 -494.03,-28.35l-407.11 -414.52 -453.87 442.87c-292.93,285.83 -207.92,244.29 -494.03,-28.35zm1053.72 -3453.57c317.96,540.89 636.24,1081.58 954.19,1622.47 136.33,213.01 168.94,225.41 -8.29,390.36l-869.14 848.07 263.41 268.19c244.63,233.11 171.95,268.64 422.41,24.25 429.11,-418.71 858.22,-837.42 1287.34,-1256.13 151.54,-141.04 123.65,-151.64 7.08,-333.78 -418.43,-711.84 -837.54,-1423.32 -1255.3,-2135.54 -220.63,-376.2 -227.33,-449.74 -441.6,-54.03 -114.68,211.78 -235.62,419.98 -360.09,626.14zm-286.64 2854.95l-885.67 -901.79c-160,-150.36 -129.91,-188.78 -22.51,-401.86 318.64,-522.11 654.49,-1034.3 975.07,-1555.29 -111.27,-189.34 -222.47,-378.71 -333.57,-568.13 -220.63,-376.2 -227.33,-449.74 -441.6,-54.03 -395.83,730.98 -866.1,1419.16 -1299.14,2128.73 -91.83,182.19 -117.56,215.04 19.24,343.6 420,427.63 839.99,855.28 1259.98,1282.9 244.63,233.11 171.95,268.64 422.41,24.25l305.8 -298.38zm182.59 -178.15l-815.77 -830.61c-136.79,-128.56 -111.07,-161.41 -19.24,-343.6 270.66,-443.49 555.86,-878.62 828.33,-1321.08 270.82,460.69 541.91,921.23 812.71,1381.92 116.57,182.14 144.45,192.74 -7.08,333.78l-798.95 779.59z"/>
  <path class="fil1" d="M2564.59 1004.61l-1073.19 1826.8 -1.77 2.29c-0.37,0.49 -136.79,169.47 102.82,413.44l972.81 1072.3 -25.72 51 -1028.82 -1042.91c-293.18,-298.51 -133.46,-534.74 -114.11,-560.96l1100.95 -1759.42 67.03 -2.53z"/>
 </g>
</svg>
